# https://github.com/mikedh/trimesh
v 204.93060396 -5.71842238 152.35553573 0.83529412 0.88627451 0.91372549
v 229.22788616 -56.81420824 148.50334142 0.81960784 0.88627451 0.90196078
v 229.23043593 -56.80693039 148.41880513 0.81960784 0.88627451 0.90196078
v 8.16851287 -1.32332710 0.80902306 0.13333333 0.77254902 0.36862745
v 210.17163931 -5.45780704 150.58581171 0.82745098 0.88627451 0.90980392
v 199.97908967 -52.03456904 152.17275096 0.83529412 0.88627451 0.91372549
v 163.66591479 73.84604147 131.53880165 0.74117647 0.87058824 0.83921569
v 142.99579450 79.61449212 129.82481383 0.73333333 0.87058824 0.83529412
v 215.05591619 -59.87455061 151.50017353 0.83137255 0.88627451 0.91372549
v 144.31596152 75.38677328 152.33967462 0.83529412 0.88627451 0.91372549
v 144.36797607 75.44796886 152.28477891 0.83529412 0.88627451 0.91372549
v 144.14736910 75.33486441 152.42479953 0.83529412 0.88627451 0.91372549
v 170.61749836 67.40282900 147.33482508 0.81176471 0.88235294 0.89803922
v 152.08411181 -53.43811825 152.49041770 0.83529412 0.88627451 0.91372549
v 191.72339779 -63.79199200 152.33703955 0.83529412 0.88627451 0.91372549
v 29.83044936 -56.29034355 147.63814387 0.81568627 0.88627451 0.89803922
v 29.86951679 -56.28057955 147.65020904 0.81568627 0.88627451 0.89803922
v 29.77645767 -56.32194947 147.61188560 0.81568627 0.88627451 0.89803922
v 213.47609127 -69.14318190 147.12859576 0.81176471 0.88235294 0.89803922
v 73.63820916 -63.31766359 151.87889722 0.83529412 0.88627451 0.91372549
v -11.47725377 -1.18138386 1.13949380 0.13333333 0.77254902 0.36862745
v 202.10177461 -71.32378096 151.13033446 0.83137255 0.88627451 0.90980392
v 202.21975388 -71.29147801 151.12138312 0.83137255 0.88627451 0.90980392
v 219.56860221 -74.40414953 137.51977053 0.76862745 0.87843137 0.86274510
v 219.60812787 -74.42717794 137.62134667 0.76862745 0.87843137 0.86274510
v 219.52494931 -74.53373678 137.66625416 0.76862745 0.87843137 0.86274510
v 219.63480168 -74.33105867 137.50833309 0.76862745 0.87843137 0.86274510
v 196.58448445 -44.51639077 104.83213996 0.61568627 0.85098039 0.74509804
v 179.91523441 -68.62759305 152.48089806 0.83529412 0.88627451 0.91372549
v 19.65431323 -67.12958811 136.26488283 0.76078431 0.87450980 0.85882353
v 187.93049266 -74.56987297 151.23726909 0.83137255 0.88627451 0.90980392
v 187.81224859 -74.57252726 151.53840144 0.83137255 0.88627451 0.91372549
v 221.63231845 -1.20920022 123.96343805 0.70588235 0.86666667 0.81176471
v 221.66691556 -1.23243635 123.73594337 0.70196078 0.86666667 0.81176471
v 145.03978382 -44.56397132 152.44813872 0.83529412 0.88627451 0.91372549
v -85.83787933 40.86866002 0.90755418 0.13333333 0.77254902 0.36862745
v -85.73378978 40.91737250 0.89408842 0.13333333 0.77254902 0.36862745
v -86.98050813 41.17931374 3.39469069 0.14509804 0.77254902 0.37647059
v -86.78792008 41.36704075 3.40187714 0.14509804 0.77254902 0.37647059
v 159.31359233 -27.78599720 152.50202177 0.83921569 0.89019608 0.91764706
v -12.16328246 -3.86721223 1.83993686 0.13725490 0.77254902 0.36862745
v 84.39864269 -68.74610745 150.92597281 0.83137255 0.88627451 0.90980392
v -20.23919785 70.95846507 12.35984057 0.18431373 0.78039216 0.40784314
v -60.53635586 59.78715963 7.02716209 0.16078431 0.77647059 0.38823529
v -60.55273448 59.72626723 6.89331912 0.16078431 0.77647059 0.38823529
v 94.98185873 90.96771341 45.37906074 0.33725490 0.80392157 0.52941176
v 94.96695537 91.00419636 45.49300242 0.34117647 0.80392157 0.52941176
v -23.68806692 66.60788604 3.89785575 0.14509804 0.77254902 0.37647059
v 40.96778968 71.74549171 2.32715138 0.13725490 0.77254902 0.37254902
v 41.16455743 71.80491045 2.37368959 0.13725490 0.77254902 0.37254902
v 56.31535776 79.32604661 14.89205180 0.19607843 0.78039216 0.41568627
v -1.47702983 -46.45445050 19.43756322 0.21960784 0.78431373 0.43529412
v -1.51243140 -46.62256003 19.54267349 0.21960784 0.78431373 0.43529412
v 42.04371708 72.19872193 2.90183005 0.14117647 0.77254902 0.37254902
v 41.86773316 72.16049410 2.83296597 0.14117647 0.77254902 0.37254902
v -3.48051480 85.23404026 48.99984507 0.35686275 0.80784314 0.54117647
v -3.60185643 85.20456377 49.01466039 0.35686275 0.80784314 0.54117647
v -3.51399024 85.17529885 49.10981033 0.35686275 0.80784314 0.54117647
v 93.58376209 -28.41656223 2.67177911 0.14117647 0.77254902 0.37254902
v 93.64721717 -28.43669774 2.69950198 0.14117647 0.77254902 0.37254902
v 93.47861701 -28.44172792 2.61215823 0.14117647 0.77254902 0.37254902
v 57.64762431 97.92808593 60.62546773 0.40784314 0.81568627 0.58431373
v 57.65121293 97.95657685 60.55827814 0.40784314 0.81568627 0.58431373
v 52.81699754 95.49371809 54.81689300 0.38431373 0.81176471 0.56078431
v -17.53389002 73.65603112 18.93144556 0.21568627 0.78431373 0.43137255
v 217.07924506 -31.26631531 150.42943858 0.82745098 0.88627451 0.90980392
v 229.22916105 -56.81056931 148.46107328 0.81960784 0.88627451 0.90196078
v 207.55112163 -5.58811471 151.47067372 0.83137255 0.88627451 0.91372549
v 219.69976273 -31.13600764 149.54457656 0.82352941 0.88627451 0.90588235
v 202.45484682 -28.87649571 152.26414334 0.83529412 0.88627451 0.91372549
v 153.33085464 76.73026680 130.68180774 0.73725490 0.87058824 0.83529412
v 209.99326008 -32.79648649 151.92785463 0.83529412 0.88627451 0.91372549
v 222.14190118 -58.34437943 150.00175748 0.82745098 0.88627451 0.90588235
v 207.51750293 -55.95455983 151.83646224 0.83529412 0.88627451 0.91372549
v 154.01694543 74.64700517 141.91179028 0.78823529 0.87843137 0.87843137
v 143.68188529 77.53123049 141.05479637 0.78431373 0.87843137 0.87450980
v 144.34196880 75.41737107 152.31222676 0.83529412 0.88627451 0.91372549
v 174.53898653 34.80822102 152.39016763 0.83529412 0.88627451 0.91372549
v 144.23166531 75.36081885 152.38223707 0.83529412 0.88627451 0.91372549
v 144.25767259 75.39141664 152.35478922 0.83529412 0.88627451 0.91372549
v 187.77405116 30.84220331 149.84518040 0.82352941 0.88627451 0.90588235
v 190.39456883 30.97251098 148.96031839 0.81960784 0.88627451 0.90196078
v 167.14170657 70.62443524 139.43681336 0.77647059 0.87843137 0.86666667
v 157.46672994 71.39480114 149.83724985 0.82352941 0.88627451 0.90588235
v 157.49273722 71.42539893 149.80980199 0.82352941 0.88627451 0.90588235
v 157.38243373 71.36884670 149.87981230 0.82352941 0.88627451 0.90588235
v 148.11574046 10.94837308 152.45760862 0.83529412 0.88627451 0.91372549
v 198.32700087 -34.75520719 152.34628764 0.83529412 0.88627451 0.91372549
v 195.85124373 -57.91328052 152.25489525 0.83529412 0.88627451 0.91372549
v 203.38965699 -61.83327131 151.91860654 0.83529412 0.88627451 0.91372549
v 86.98890923 9.52226043 150.03147170 0.82745098 0.88627451 0.90588235
v 87.00844295 9.52714243 150.03750428 0.82745098 0.88627451 0.90588235
v 29.84998307 -56.28546155 147.64417645 0.81568627 0.88627451 0.89803922
v 29.80345352 -56.30614651 147.62501473 0.81568627 0.88627451 0.89803922
v 221.35198872 -62.97869507 147.81596859 0.81568627 0.88627451 0.89803922
v 108.89278913 6.00860041 152.15184838 0.83529412 0.88627451 0.91372549
v 112.86116049 -58.37789092 152.18465746 0.83529412 0.88627451 0.91372549
v 51.73432926 -59.80400357 149.75852055 0.82352941 0.88627451 0.90588235
v 51.75386297 -59.79912157 149.76455313 0.82352941 0.88627451 0.90588235
v 51.70733342 -59.81980653 149.74539141 0.82352941 0.88627451 0.90588235
v -1.65437045 -1.25235548 0.97425843 0.13333333 0.77254902 0.36862745
v 208.57884540 -65.59916578 151.31525399 0.83137255 0.88627451 0.90980392
v 196.91258620 -67.55788648 151.73368701 0.83529412 0.88627451 0.91372549
v 215.72382002 -64.05284312 149.81236227 0.82352941 0.88627451 0.90588235
v 208.63783504 -65.58301431 151.31077832 0.83137255 0.88627451 0.90980392
v 207.84792258 -70.21732996 149.12498944 0.81960784 0.88627451 0.90196078
v 202.16076424 -71.30762948 151.12585879 0.83137255 0.88627451 0.90980392
v 224.41800701 -65.62069309 143.06234405 0.79215686 0.88235294 0.88235294
v 224.41928190 -65.61705417 143.02007590 0.79215686 0.88235294 0.88235294
v 219.58836504 -74.41566373 137.57055860 0.76862745 0.87843137 0.86274510
v 224.37641773 -65.67397251 143.08479779 0.79215686 0.88235294 0.88235294
v 216.50052029 -71.83845934 142.39742496 0.79215686 0.88235294 0.87843137
v 210.81336196 -72.92875887 144.39829431 0.80000000 0.88235294 0.88627451
v 210.87235159 -72.91260740 144.39381864 0.80000000 0.88235294 0.88627451
v 219.54677576 -74.46894316 137.59301235 0.76862745 0.87843137 0.86274510
v 219.56653859 -74.48045736 137.64380041 0.76862745 0.87843137 0.86274510
v 224.43261881 -65.56899453 142.96356911 0.79215686 0.88235294 0.88235294
v 219.60170194 -74.36760410 137.51405181 0.76862745 0.87843137 0.86274510
v 219.62146477 -74.37911831 137.56483988 0.76862745 0.87843137 0.86274510
v 208.10964307 -59.42372472 121.17023653 0.69019608 0.86274510 0.80392157
v 192.42291919 -37.17300771 152.41821690 0.83529412 0.88627451 0.91372549
v 165.99967311 -61.03285565 152.48565788 0.83529412 0.88627451 0.91372549
v 185.81931610 -66.20979253 152.40896881 0.83529412 0.88627451 0.91372549
v 126.77672179 -65.97262832 152.17989764 0.83529412 0.88627451 0.91372549
v 191.00850451 -69.97568700 151.80561626 0.83529412 0.88627451 0.91372549
v 24.71538545 -61.72576879 141.93838421 0.78823529 0.87843137 0.87843137
v 119.58963127 -70.83166245 136.96556849 0.76470588 0.87450980 0.85882353
v 203.72772098 -74.55180488 144.45176162 0.80000000 0.88235294 0.88627451
v 103.79240294 -70.84973054 143.75107596 0.79607843 0.88235294 0.88235294
v 130.72522888 -68.94509543 151.70864933 0.83529412 0.88627451 0.91372549
v 194.95701160 -72.94815411 151.33436795 0.83137255 0.88627451 0.90980392
v 203.66859895 -74.55313202 144.60232780 0.80000000 0.88235294 0.88627451
v 183.86374150 -71.60006016 152.00964975 0.83529412 0.88627451 0.91372549
v 103.73328091 -70.85105769 143.90164213 0.79607843 0.88235294 0.88627451
v 187.87137062 -74.57120012 151.38783526 0.83137255 0.88627451 0.90980392
v 225.43010231 -29.01170423 136.23338974 0.76078431 0.87450980 0.85490196
v 215.90197888 -3.33350363 137.27462488 0.76470588 0.87450980 0.85882353
v 196.12490841 33.09681439 135.64913156 0.76078431 0.87450980 0.85490196
v 225.44740086 -29.02332229 136.11964240 0.76078431 0.87450980 0.85490196
v 225.44867574 -29.01968337 136.07737425 0.76078431 0.87450980 0.85490196
v 192.66641517 36.30680256 127.63737251 0.72156863 0.87058824 0.82745098
v 196.14220696 33.08519633 135.53538423 0.75686275 0.87450980 0.85490196
v 220.65085862 -37.78174751 130.62213823 0.73725490 0.87058824 0.83529412
v 209.12570000 -22.87441356 114.28404167 0.65882353 0.85882353 0.77647059
v 221.64961701 -1.22081829 123.84969071 0.70588235 0.86666667 0.81176471
v 144.59357646 15.38544655 152.43646913 0.83529412 0.88627451 0.91372549
v 148.56194781 -49.00104479 152.46927821 0.83529412 0.88627451 0.91372549
v 109.33899649 -53.94081745 152.16351797 0.83529412 0.88627451 0.91372549
v -48.65756655 19.84363808 1.02352399 0.13333333 0.77254902 0.36862745
v -38.78263846 19.79702270 0.85155574 0.13333333 0.77254902 0.36862745
v -48.60552177 19.86799432 1.01679111 0.13333333 0.77254902 0.36862745
v -85.78583455 40.89301626 0.90082130 0.13333333 0.77254902 0.36862745
v -28.60202523 -7.57131787 75.50328815 0.47843137 0.82745098 0.63529412
v -33.66309745 -12.97513719 69.82978676 0.45098039 0.82352941 0.61568627
v -86.40919373 41.02398688 2.15112244 0.13725490 0.77254902 0.37254902
v -86.31289971 41.11785038 2.15471566 0.13725490 0.77254902 0.37254902
v -86.88421411 41.27317724 3.39828391 0.14509804 0.77254902 0.37647059
v 182.12209814 -16.75220979 152.42877875 0.83529412 0.88627451 0.91372549
v 151.73048072 23.77443360 152.46341065 0.83529412 0.88627451 0.91372549
v 155.69885207 -40.61205773 152.49621974 0.83529412 0.88627451 0.91372549
v 169.61441337 -48.20679513 152.49145992 0.83529412 0.88627451 0.91372549
v -11.82026811 -2.52429804 1.48971533 0.13333333 0.77254902 0.36862745
v -49.00058089 18.50072389 1.37374552 0.13333333 0.77254902 0.36862745
v 57.08755018 -62.53402846 149.26892920 0.82352941 0.88627451 0.90588235
v 79.01842592 -66.03188552 151.40243502 0.83137255 0.88627451 0.90980392
v 52.02647796 -67.93784778 143.59542782 0.79607843 0.88235294 0.88235294
v 136.10544564 -71.65931736 151.23218712 0.83137255 0.88627451 0.90980392
v -73.66213797 50.57710019 5.21451961 0.15294118 0.77254902 0.38431373
v -40.38777686 65.37281235 9.69350133 0.17254902 0.77647059 0.40000000
v -73.19530690 50.29746363 3.90043665 0.14509804 0.77254902 0.37647059
v -73.14326213 50.32181987 3.89370377 0.14509804 0.77254902 0.37647059
v -73.67032728 50.54665399 5.14759813 0.15294118 0.77254902 0.38431373
v -60.54454517 59.75671343 6.96024060 0.16078431 0.77647059 0.38823529
v 129.32388676 82.40687744 88.45893119 0.54117647 0.83921569 0.68235294
v 158.32438714 44.86763853 84.55750206 0.52156863 0.83529412 0.67058824
v 129.31643508 82.42511892 88.51590203 0.54117647 0.83921569 0.68235294
v 118.98137494 85.30934424 87.65890813 0.53725490 0.83921569 0.68235294
v 94.97440705 90.98595489 45.43603158 0.33725490 0.80392157 0.52941176
v -54.71092835 53.76262927 2.39597208 0.13725490 0.77254902 0.37254902
v -21.96363239 68.78317556 8.12884816 0.16470588 0.77647059 0.39215686
v -42.11221139 63.19752284 5.46250892 0.15294118 0.77254902 0.38431373
v -42.12040070 63.16707664 5.39558743 0.15294118 0.77254902 0.38431373
v 24.56815127 35.21108231 1.56808722 0.13333333 0.77254902 0.36862745
v -22.38300005 56.33143211 1.61061990 0.13333333 0.77254902 0.36862745
v 8.63986138 69.17668888 3.11250357 0.14117647 0.77254902 0.37647059
v 8.73824526 69.20639825 3.13577267 0.14117647 0.77254902 0.37647059
v 41.06617355 71.77520108 2.35042048 0.13725490 0.77254902 0.37254902
v 18.03807995 75.14225584 13.62594619 0.19215686 0.78039216 0.41176471
v 75.64860824 85.14688001 30.13555627 0.26666667 0.79215686 0.47450980
v 16.31364542 72.96696633 9.39495378 0.17254902 0.77647059 0.39607843
v -43.65745458 -2.79289524 10.17255870 0.17647059 0.77647059 0.40000000
v -6.82015615 -25.16083137 10.63875004 0.17647059 0.77647059 0.40392157
v 109.00625895 -60.57814841 78.60446382 0.49411765 0.83137255 0.64705882
v 9.07094091 -56.87607407 77.90377816 0.49019608 0.83137255 0.64705882
v -43.67515537 -2.87695001 10.22511384 0.17647059 0.77647059 0.40000000
v -44.24646977 -2.72162315 11.46868209 0.18039216 0.78039216 0.40392157
v -1.49473062 -46.53850527 19.49011836 0.21960784 0.78431373 0.43529412
v 41.60413726 72.00181619 2.63775982 0.14117647 0.77254902 0.37254902
v 49.17953742 75.76238427 8.89694093 0.16862745 0.77647059 0.39607843
v 9.08983312 69.38419007 3.36541086 0.14509804 0.77254902 0.37647059
v 41.51614530 71.98270227 2.60332778 0.14117647 0.77254902 0.37254902
v 49.09154546 75.74327035 8.86250889 0.16862745 0.77647059 0.39607843
v 41.95572512 72.17960801 2.86739801 0.14117647 0.77254902 0.37254902
v -32.00843533 72.51059995 28.01350358 0.25882353 0.79215686 0.46666667
v 70.27275633 80.26971409 100.71972996 0.59607843 0.84705882 0.72941176
v -45.29118228 63.19193876 26.20467554 0.25098039 0.79215686 0.45882353
v -45.19488826 63.28580226 26.20826876 0.25098039 0.79215686 0.45882353
v -32.06910615 72.49586170 28.02091124 0.25882353 0.79215686 0.46666667
v -3.54118562 85.21930202 49.00725273 0.35686275 0.80784314 0.54117647
v 70.31668943 80.25508163 100.76730493 0.59607843 0.84705882 0.72941176
v 13.15822956 14.44247765 98.37397710 0.58431373 0.84705882 0.72156863
v 13.13123372 14.42667469 98.36084797 0.58431373 0.84705882 0.72156863
v -45.24724919 63.17730629 26.25225051 0.25098039 0.79215686 0.45882353
v -3.55792334 85.18993131 49.06223536 0.35686275 0.80784314 0.54117647
v 67.81373958 21.89107985 2.78680458 0.14117647 0.77254902 0.37254902
v 156.60790969 -51.42042363 70.10963626 0.45490196 0.82352941 0.61568627
v 156.58608324 -51.48521726 70.18287807 0.45490196 0.82352941 0.61960784
v 156.64100942 -51.38387820 70.10391754 0.45490196 0.82352941 0.61568627
v 145.11585081 -36.47654425 53.76582097 0.37647059 0.81176471 0.55686275
v 157.65706636 -14.83456704 63.21772268 0.42352941 0.81960784 0.59215686
v 94.31453795 31.26550784 24.03928136 0.23921569 0.78823529 0.45098039
v 74.98128746 25.44467444 8.79577689 0.16862745 0.77647059 0.39607843
v 67.84546712 21.88101210 2.80066602 0.14117647 0.77254902 0.37254902
v 93.61548963 -28.42662998 2.68564055 0.14117647 0.77254902 0.37254902
v 50.82356494 -14.88252751 1.71059065 0.13725490 0.77254902 0.36862745
v 41.00068162 -14.81155589 1.87582601 0.13725490 0.77254902 0.36862745
v 156.50178316 -51.48773235 70.13920619 0.45490196 0.82352941 0.61568627
v 40.65766728 -16.15447008 2.22604755 0.13725490 0.77254902 0.37254902
v 67.22320334 21.65188189 2.46965481 0.13725490 0.77254902 0.37254902
v 67.32158722 21.68159126 2.49292391 0.13725490 0.77254902 0.37254902
v 46.00079359 -37.44808921 11.02486073 0.18039216 0.78039216 0.40392157
v 45.98309280 -37.53214398 11.07741586 0.18039216 0.78039216 0.40392157
v 67.76116705 21.87849700 2.75699414 0.14117647 0.77254902 0.37254902
v 93.53118955 -28.42914508 2.64196867 0.14117647 0.77254902 0.37254902
v 93.56291709 -28.43921283 2.65583011 0.14117647 0.77254902 0.37254902
v 101.00780019 86.68802739 106.45512332 0.62352941 0.85098039 0.74901961
v 100.89749671 86.63147517 106.52513363 0.62352941 0.85098039 0.74901961
v 27.02288394 91.56632485 54.82006406 0.38431373 0.81176471 0.56078431
v 100.32350372 88.78553448 95.19154599 0.56862745 0.84313725 0.70980392
v 101.00959450 86.70227286 106.42152852 0.62352941 0.85098039 0.74901961
v 76.31653583 94.46214513 52.96866944 0.37254902 0.81176471 0.55686275
v 76.30908415 94.48038661 53.02564028 0.37254902 0.81176471 0.55686275
v 56.98328534 88.64131173 37.72516497 0.30196078 0.80000000 0.50196078
v 27.08534907 91.59530856 54.77906160 0.38431373 0.81176471 0.56078431
v 27.02467825 91.58057031 54.78646926 0.38431373 0.81176471 0.56078431
v 57.64941862 97.94233139 60.59187294 0.40784314 0.81568627 0.58431373
v 16.28889984 83.22609158 33.58836678 0.28235294 0.79607843 0.48627451
v 54.56617765 87.40988235 34.85447240 0.29019608 0.79607843 0.49019608
v 24.66824137 90.36387918 51.90836903 0.36862745 0.81176471 0.55294118
v 55.23410523 96.72514747 57.68758557 0.39607843 0.81568627 0.57254902
v -18.88654394 72.30724810 15.64564307 0.20000000 0.78039216 0.41960784
v -39.03512294 66.72159538 12.97930382 0.18823529 0.78039216 0.41176471
v -10.50720241 79.44503569 33.96564531 0.28627451 0.79607843 0.48627451
v 17.64155376 84.57487460 36.87416928 0.29803922 0.80000000 0.49803922
f 12 210 91
f 210 58 211
f 91 211 16
f 210 211 91
f 4 150 183
f 150 37 184
f 183 184 49
f 150 184 183
f 39 156 157
f 156 36 155
f 157 155 38
f 156 155 157
f 38 154 153
f 154 30 126
f 153 126 18
f 154 126 153
f 18 212 153
f 212 58 213
f 153 213 38
f 212 213 153
f 16 211 94
f 211 58 212
f 94 212 18
f 211 212 94
f 18 100 94
f 100 20 98
f 94 98 16
f 100 98 94
f 61 229 230
f 229 49 187
f 230 187 50
f 229 187 230
f 4 183 225
f 183 49 229
f 225 229 61
f 183 229 225
f 48 185 179
f 185 49 184
f 179 184 37
f 185 184 179
f 50 187 186
f 187 49 185
f 186 185 48
f 187 185 186
f 21 151 101
f 151 37 150
f 101 150 4
f 151 150 101
f 21 149 151
f 149 36 152
f 151 152 37
f 149 152 151
f 4 225 101
f 225 61 226
f 101 226 21
f 225 226 101
f 12 78 86
f 78 1 81
f 86 81 13
f 78 81 86
f 17 92 93
f 92 12 91
f 93 91 16
f 92 91 93
f 16 98 93
f 98 20 99
f 93 99 17
f 98 99 93
f 17 99 92
f 99 20 96
f 92 96 12
f 99 96 92
f 51 189 222
f 189 46 221
f 222 221 60
f 189 221 222
f 63 241 243
f 241 46 189
f 243 189 51
f 241 189 243
f 51 190 188
f 190 48 180
f 188 180 43
f 190 180 188
f 7 174 176
f 174 46 178
f 176 178 47
f 174 178 176
f 47 177 176
f 177 8 71
f 176 71 7
f 177 71 176
f 47 178 242
f 178 46 241
f 242 241 63
f 178 241 242
f 63 239 242
f 239 8 177
f 242 177 47
f 239 177 242
f 60 235 224
f 235 61 234
f 224 234 59
f 235 234 224
f 53 194 196
f 194 30 154
f 196 154 38
f 194 154 196
f 38 155 196
f 155 36 195
f 196 195 53
f 155 195 196
f 43 180 169
f 180 48 181
f 169 181 44
f 180 181 169
f 44 252 169
f 252 65 251
f 169 251 43
f 252 251 169
f 44 204 252
f 204 56 253
f 252 253 65
f 204 253 252
f 64 249 250
f 249 56 244
f 250 244 63
f 249 244 250
f 65 253 254
f 253 56 249
f 254 249 64
f 253 249 254
f 63 243 250
f 243 51 248
f 250 248 64
f 243 248 250
f 43 251 247
f 251 65 254
f 247 254 64
f 251 254 247
f 64 248 247
f 248 51 188
f 247 188 43
f 248 188 247
f 57 238 245
f 238 62 246
f 245 246 63
f 238 246 245
f 63 244 245
f 244 56 209
f 245 209 57
f 244 209 245
f 58 210 214
f 210 12 205
f 214 205 57
f 210 205 214
f 12 237 205
f 237 62 238
f 205 238 57
f 237 238 205
f 56 204 209
f 204 44 208
f 209 208 57
f 204 208 209
f 57 208 207
f 208 44 168
f 207 168 39
f 208 168 207
f 38 213 206
f 213 58 214
f 206 214 57
f 213 214 206
f 57 207 206
f 207 39 157
f 206 157 38
f 207 157 206
f 11 85 75
f 85 13 83
f 75 83 7
f 85 83 75
f 7 71 75
f 71 8 76
f 75 76 11
f 71 76 75
f 11 76 240
f 76 8 239
f 240 239 63
f 76 239 240
f 63 246 240
f 246 62 236
f 240 236 11
f 246 236 240
f 11 236 80
f 236 62 237
f 80 237 12
f 236 237 80
f 30 134 166
f 134 32 167
f 166 167 42
f 134 167 166
f 42 167 165
f 167 32 130
f 165 130 20
f 167 130 165
f 42 164 166
f 164 18 126
f 166 126 30
f 164 126 166
f 20 100 165
f 100 18 164
f 165 164 42
f 100 164 165
f 26 193 227
f 193 53 232
f 227 232 61
f 193 232 227
f 30 194 127
f 194 53 193
f 127 193 26
f 194 193 127
f 26 227 217
f 227 61 235
f 217 235 60
f 227 235 217
f 1 70 72
f 70 6 74
f 72 74 9
f 70 74 72
f 20 130 124
f 130 32 133
f 124 133 29
f 130 133 124
f 29 122 124
f 122 14 97
f 124 97 20
f 122 97 124
f 50 186 201
f 186 48 200
f 201 200 55
f 186 200 201
f 48 190 200
f 190 51 202
f 200 202 55
f 190 202 200
f 61 232 231
f 232 53 197
f 231 197 52
f 232 197 231
f 52 197 191
f 197 53 195
f 191 195 36
f 197 195 191
f 45 182 171
f 182 48 179
f 171 179 37
f 182 179 171
f 45 173 182
f 173 44 181
f 182 181 48
f 173 181 182
f 37 152 171
f 152 36 170
f 171 170 45
f 152 170 171
f 36 156 170
f 156 39 172
f 170 172 45
f 156 172 170
f 39 168 172
f 168 44 173
f 172 173 45
f 168 173 172
f 12 96 146
f 96 20 148
f 146 148 35
f 96 148 146
f 35 147 146
f 147 14 87
f 146 87 12
f 147 87 146
f 20 97 148
f 97 14 147
f 148 147 35
f 97 147 148
f 5 82 68
f 82 13 81
f 68 81 1
f 82 81 68
f 12 86 79
f 86 13 84
f 79 84 10
f 86 84 79
f 10 77 79
f 77 11 80
f 79 80 12
f 77 80 79
f 13 85 84
f 85 11 77
f 84 77 10
f 85 77 84
f 60 219 218
f 219 28 120
f 218 120 27
f 219 120 218
f 31 135 129
f 135 32 134
f 129 134 30
f 135 134 129
f 30 127 129
f 127 26 128
f 129 128 31
f 127 128 129
f 31 128 135
f 128 26 132
f 135 132 32
f 128 132 135
f 1 72 66
f 72 9 73
f 66 73 2
f 72 73 66
f 2 69 66
f 69 5 68
f 66 68 1
f 69 68 66
f 9 105 73
f 105 23 104
f 73 104 2
f 105 104 73
f 12 87 159
f 87 14 160
f 159 160 40
f 87 160 159
f 14 122 160
f 122 29 161
f 160 161 40
f 122 161 160
f 40 158 159
f 158 1 78
f 159 78 12
f 158 78 159
f 40 161 158
f 161 29 121
f 158 121 1
f 161 121 158
f 54 199 223
f 199 51 222
f 223 222 60
f 199 222 223
f 54 203 199
f 203 55 202
f 199 202 51
f 203 202 199
f 60 224 223
f 224 59 215
f 223 215 54
f 224 215 223
f 50 201 198
f 201 55 203
f 198 203 54
f 201 203 198
f 54 233 198
f 233 61 230
f 198 230 50
f 233 230 198
f 54 215 233
f 215 59 234
f 233 234 61
f 215 234 233
f 36 149 163
f 149 21 162
f 163 162 41
f 149 162 163
f 41 192 163
f 192 52 191
f 163 191 36
f 192 191 163
f 41 162 228
f 162 21 226
f 228 226 61
f 162 226 228
f 61 231 228
f 231 52 192
f 228 192 41
f 231 192 228
f 60 221 220
f 221 46 175
f 220 175 34
f 221 175 220
f 34 144 220
f 144 28 219
f 220 219 60
f 144 219 220
f 3 117 140
f 117 27 143
f 140 143 34
f 117 143 140
f 34 143 144
f 143 27 120
f 144 120 28
f 143 120 144
f 34 175 141
f 175 46 174
f 141 174 7
f 175 174 141
f 7 83 141
f 83 13 142
f 141 142 34
f 83 142 141
f 34 139 140
f 139 2 67
f 140 67 3
f 139 67 140
f 32 132 131
f 132 26 113
f 131 113 22
f 132 113 131
f 26 114 113
f 114 23 107
f 113 107 22
f 114 107 113
f 22 125 131
f 125 29 133
f 131 133 32
f 125 133 131
f 22 107 102
f 107 23 105
f 102 105 9
f 107 105 102
f 24 115 216
f 115 26 217
f 216 217 60
f 115 217 216
f 60 218 216
f 218 27 118
f 216 118 24
f 218 118 216
f 19 106 112
f 106 23 114
f 112 114 26
f 106 114 112
f 26 111 112
f 111 2 95
f 112 95 19
f 111 95 112
f 19 95 106
f 95 2 104
f 106 104 23
f 95 104 106
f 25 108 116
f 108 2 111
f 116 111 26
f 108 111 116
f 26 115 116
f 115 24 110
f 116 110 25
f 115 110 116
f 25 110 119
f 110 24 118
f 119 118 27
f 110 118 119
f 25 119 109
f 119 27 117
f 109 117 3
f 119 117 109
f 3 67 109
f 67 2 108
f 109 108 25
f 67 108 109
f 13 82 138
f 82 5 137
f 138 137 33
f 82 137 138
f 33 145 138
f 145 34 142
f 138 142 13
f 145 142 138
f 5 69 137
f 69 2 136
f 137 136 33
f 69 136 137
f 2 139 136
f 139 34 145
f 136 145 33
f 139 145 136
f 15 103 90
f 103 22 102
f 90 102 9
f 103 102 90
f 29 125 123
f 125 22 103
f 123 103 15
f 125 103 123
f 15 90 89
f 90 9 74
f 89 74 6
f 90 74 89
f 1 121 88
f 121 29 123
f 88 123 15
f 121 123 88
f 15 89 88
f 89 6 70
f 88 70 1
f 89 70 88

