# https://github.com/mikedh/trimesh
v 14.25518917 -15.04347583 1.80208833 0.29411765 0.79607843 0.49411765
v 14.17162338 -15.13939490 1.88177188 0.30196078 0.80000000 0.49803922
v 14.11874039 -15.06540288 1.74957273 0.29019608 0.79607843 0.49019608
v -15.10046412 -10.37643600 1.07487778 0.23137255 0.78823529 0.44313725
v -15.08817250 1.38559667 8.00679833 0.81960784 0.88627451 0.90196078
v -15.06517367 1.58971448 8.09607403 0.82745098 0.88627451 0.90588235
v -15.01680933 1.38180919 8.11773082 0.82745098 0.88627451 0.90980392
v 12.93866917 -14.88805333 8.09517583 0.82745098 0.88627451 0.90588235
v 12.98293765 -14.96424570 7.98626993 0.81568627 0.88627451 0.89803922
v 13.11233460 -14.78976548 8.10303057 0.82745098 0.88627451 0.90588235
v 9.62385813 -13.09775335 0.43407327 0.17647059 0.77647059 0.40392157
v 15.07646231 12.45317078 6.92779826 0.72549020 0.87058824 0.83137255
v -1.49474939 -8.74921210 0.03077899 0.14509804 0.77254902 0.37647059
v -14.47460917 14.42686500 4.52350583 0.52549020 0.83529412 0.67058824
v -14.41653973 14.56179399 4.52325717 0.52156863 0.83529412 0.67058824
v -14.50806871 14.27993366 4.56779275 0.52549020 0.83529412 0.67450980
v -13.62622294 5.70552461 0.01366688 0.14117647 0.77254902 0.37647059
v 13.77751209 -3.75153216 -0.06000970 0.13725490 0.77254902 0.36862745
v -14.94290833 15.03534917 7.62890833 0.78431373 0.87843137 0.87450980
v -14.92335229 15.18257230 7.63725609 0.78823529 0.87843137 0.87843137
v -11.05127355 -14.70681896 1.28371301 0.25098039 0.79215686 0.45882353
v -15.23906619 -1.92150692 4.24780413 0.50196078 0.83137255 0.65490196
v 15.13819068 10.32853196 0.03366161 0.14509804 0.77254902 0.37647059
v 15.17309853 10.43227573 0.13471523 0.15294118 0.77254902 0.38431373
v -14.43218150 -13.79430336 7.94686199 0.81176471 0.88235294 0.89803922
v -14.35654983 -13.71635543 8.17099355 0.83137255 0.88627451 0.90980392
v -14.46529087 -13.70106517 8.18758134 0.83529412 0.88627451 0.91372549
v 11.63475005 11.22299370 -0.07721401 0.13333333 0.77254902 0.36862745
v -9.47304662 -13.98888858 0.51341362 0.18431373 0.78039216 0.40784314
v -14.35982000 -13.57356500 0.69178250 0.20000000 0.78039216 0.41960784
v -14.50469226 -13.55726258 0.75208023 0.20392157 0.78431373 0.42352941
v -3.73126287 -15.24138175 4.15339813 0.49411765 0.83137255 0.64705882
v 11.25931461 14.53663379 7.95463689 0.81568627 0.88627451 0.89803922
v 11.19282660 14.79021002 7.92152648 0.81176471 0.88235294 0.89411765
v 14.10474956 14.99648945 0.68665435 0.20000000 0.78039216 0.41960784
v 13.94701813 15.03381727 0.66983368 0.19607843 0.78039216 0.41960784
v 14.19082785 15.03793672 0.88633694 0.21568627 0.78431373 0.43137255
v 15.26507084 2.55536475 2.71935372 0.37254902 0.81176471 0.55294118
v 15.26638170 2.47942288 2.84018173 0.38039216 0.81176471 0.56078431
v -13.28466786 -6.33657017 0.14702477 0.15294118 0.77254902 0.38431373
v -13.44550659 -6.37187759 0.15202681 0.15294118 0.77254902 0.38431373
v -3.34021165 13.94527179 8.22363919 0.83529412 0.88627451 0.91372549
v -15.13703490 3.46435723 1.99610850 0.30980392 0.80000000 0.50588235
v -13.55512389 13.15773085 2.14173069 0.32156863 0.80392157 0.51372549
v -15.18467667 3.06781667 6.38044917 0.68235294 0.86274510 0.79215686
v -4.97102231 -2.88265856 -0.06383507 0.13725490 0.77254902 0.36862745
v -15.12710034 -7.36404374 0.73296026 0.20392157 0.78431373 0.42352941
v -15.08969287 -7.32881957 0.59670249 0.19215686 0.78039216 0.41176471
v 11.28589642 -14.65125225 8.17011886 0.83137255 0.88627451 0.90980392
v 15.07903000 13.77470000 1.01583333 0.22745098 0.78823529 0.43921569
v 14.95839582 13.87986150 0.91429685 0.21960784 0.78431373 0.43529412
v 12.71915692 14.86023087 0.49265348 0.18431373 0.78039216 0.40784314
v 12.81758033 14.86452727 0.50160730 0.18431373 0.78039216 0.40784314
v 14.15079221 -5.55014884 8.11094758 0.82745098 0.88627451 0.90588235
v -14.84418190 6.48699711 1.12582489 0.23529412 0.78823529 0.44705882
v 14.88408449 0.62581049 0.32483763 0.16862745 0.77647059 0.39607843
v 8.40910928 -15.10512859 6.71358649 0.70980392 0.86666667 0.81568627
v -9.07558881 0.53056105 -0.08609537 0.13333333 0.77254902 0.36862745
v 15.22785462 11.37950057 6.05969791 0.65490196 0.85882353 0.77254902
v 15.03122539 -8.04281085 2.85310894 0.38039216 0.81176471 0.56078431
v 15.32438843 -7.71916245 4.82357247 0.54901961 0.83921569 0.69019608
v -10.07253015 14.98240685 0.62651467 0.19215686 0.78039216 0.41568627
v -9.98447231 15.01147867 0.58820993 0.19215686 0.78039216 0.41176471
v 14.54539241 15.26929318 5.35954038 0.59607843 0.84705882 0.72549020
v -14.82337920 -11.10897536 6.74078289 0.70980392 0.86666667 0.81568627
v -15.17802531 9.20600379 4.60495734 0.52941176 0.83529412 0.67843137
v -12.63742849 -12.72541179 0.47343014 0.18039216 0.78039216 0.40392157
v -11.35661651 -15.08461933 5.38617395 0.59607843 0.84705882 0.72941176
v -14.50556796 3.82460860 0.00464829 0.14117647 0.77254902 0.37254902
v 1.82190765 -15.25010849 4.35601419 0.50980392 0.83529412 0.65882353
v 14.68285500 15.08309333 7.77417250 0.80000000 0.88235294 0.88627451
v 14.78422329 15.20691656 7.68061035 0.79215686 0.88235294 0.87843137
v 14.63904544 15.20989187 7.75790660 0.79607843 0.88235294 0.88627451
v 3.71822936 -15.13701714 8.05958662 0.82352941 0.88627451 0.90588235
v -3.01965130 -14.84203540 0.82564132 0.21176471 0.78431373 0.42745098
v 15.24213783 -9.87946070 6.92260057 0.72549020 0.87058824 0.83137255
v 15.20670163 -9.94584614 6.98210318 0.73333333 0.87058824 0.83529412
v 2.02249652 15.17930376 -0.11225204 0.13333333 0.77254902 0.36862745
v -14.42190591 9.73782633 0.62888436 0.19215686 0.78039216 0.41568627
v -14.49362205 9.87875523 0.74068598 0.20392157 0.78431373 0.42352941
v 9.99433167 0.52376398 8.23194480 0.83921569 0.89019608 0.91764706
v 14.21340627 -15.09143537 1.84193011 0.29803922 0.80000000 0.49411765
v 14.18696478 -15.05443936 1.77583053 0.29019608 0.79607843 0.49019608
v 14.14518188 -15.10239889 1.81567231 0.29411765 0.79607843 0.49411765
v -15.07667308 1.48765557 8.05143618 0.82352941 0.88627451 0.90196078
v -15.04099150 1.48576184 8.10690242 0.82745098 0.88627451 0.90588235
v 13.57728051 -15.05182030 4.93402090 0.55686275 0.84313725 0.69803922
v 12.96080341 -14.92614952 8.04072288 0.81960784 0.88627451 0.90196078
v 13.68376189 -14.91662066 4.95255945 0.56078431 0.84313725 0.69803922
v 13.64197899 -14.96458019 4.99240122 0.56470588 0.84313725 0.70196078
v 13.02550189 -14.83890941 8.09910320 0.82745098 0.88627451 0.90588235
v 13.04763613 -14.87700559 8.04465025 0.81960784 0.88627451 0.90196078
v 11.87129926 -14.08157812 1.09182300 0.23137255 0.78823529 0.44705882
v 4.06455437 -10.92348272 0.23242613 0.16078431 0.77647059 0.38823529
v -14.44557445 14.49432950 4.52338150 0.52156863 0.83529412 0.67058824
v -14.49133894 14.35339933 4.54564929 0.52549020 0.83529412 0.67450980
v 14.01635063 -9.39750400 0.87103932 0.21568627 0.78431373 0.43137255
v 13.94812624 -9.40846752 0.84478152 0.21176471 0.78431373 0.43137255
v 11.70068511 -8.42464275 0.18703179 0.15686275 0.77647059 0.38823529
v 6.14138135 -6.25037213 -0.01461535 0.14117647 0.77254902 0.37254902
v -15.01554042 8.21047292 7.81785333 0.80392157 0.88235294 0.89019608
v -15.00404100 8.31253182 7.86249118 0.80784314 0.88235294 0.89019608
v -14.99426298 8.38614339 7.86666506 0.80784314 0.88235294 0.89019608
v -14.97008081 8.28219075 7.87749345 0.80784314 0.88235294 0.89411765
v -14.69898073 14.80471865 6.08038096 0.65490196 0.85882353 0.77254902
v -14.66994601 14.87218315 6.08025663 0.65490196 0.85882353 0.77254902
v -14.71571050 14.73125298 6.10252442 0.65882353 0.85882353 0.77647059
v -14.93313031 15.10896074 7.63308221 0.78823529 0.87843137 0.87450980
v -15.16976516 -6.14897146 2.66134095 0.36470588 0.80784314 0.54901961
v -15.16361935 -0.26795512 6.12730123 0.65882353 0.85882353 0.77647059
v 14.45785139 3.28849990 -0.01317404 0.14117647 0.77254902 0.37254902
v 15.15564460 10.38040384 0.08418842 0.14901961 0.77254902 0.38039216
v -14.78287750 -12.03875059 4.63122956 0.53333333 0.83921569 0.67843137
v -14.77673169 -6.15773425 8.09718984 0.82745098 0.88627451 0.90588235
v -14.76523227 -6.05567535 8.14182768 0.83137255 0.88627451 0.90980392
v -14.74105010 -6.15962799 8.15265608 0.83137255 0.88627451 0.90980392
v -14.44873619 -13.74768426 8.06722166 0.82352941 0.88627451 0.90588235
v -14.41092035 -13.70871030 8.17928744 0.83137255 0.88627451 0.91372549
v 12.70613107 3.73573077 -0.06861185 0.13333333 0.77254902 0.36862745
v 13.38647036 10.77576283 -0.02177620 0.13725490 0.77254902 0.37254902
v 0.07540576 -13.54332097 0.47374345 0.18039216 0.78039216 0.40392157
v -5.48389800 -11.36905034 0.27209631 0.16470588 0.77647059 0.39215686
v -10.26216009 -14.34785377 0.89856331 0.21568627 0.78431373 0.43137255
v -12.70554678 -14.14019198 0.98774775 0.22352941 0.78431373 0.43921569
v -11.91643331 -13.78122679 0.60259806 0.19215686 0.78039216 0.41176471
v -14.80257819 -11.96684929 0.91347900 0.21960784 0.78431373 0.43529412
v -12.77798291 -14.13204077 1.01789662 0.22745098 0.78823529 0.43921569
v -14.46843688 -13.67578297 4.34947111 0.50980392 0.83529412 0.65882353
v -14.48499157 -13.62916387 4.46983079 0.51764706 0.83529412 0.66666667
v -14.43225613 -13.56541379 0.72193136 0.20000000 0.78039216 0.41960784
v 5.22018025 -15.19038832 3.01758501 0.39607843 0.81568627 0.57254902
v -7.39126821 -14.97410036 2.71855557 0.37254902 0.81176471 0.55294118
v 11.22607060 14.66342190 7.93808169 0.81176471 0.88235294 0.89803922
v 14.62147012 12.66251070 0.36015798 0.17254902 0.77647059 0.39607843
v 14.54260440 12.68117461 0.35174765 0.17254902 0.77647059 0.39607843
v 14.02588384 15.01515336 0.67824401 0.20000000 0.78039216 0.41960784
v 14.14778871 15.01721309 0.78649564 0.20784314 0.78431373 0.42745098
v 14.06892299 15.03587700 0.77808531 0.20784314 0.78431373 0.42352941
v 15.21908468 6.49382024 1.42703447 0.26274510 0.79215686 0.46666667
v 15.26572627 2.51739382 2.77976773 0.37647059 0.81176471 0.55686275
v -7.38970862 -7.54289113 0.08890188 0.14901961 0.77254902 0.38039216
v -7.47012799 -7.56054484 0.09140290 0.14901961 0.77254902 0.38039216
v -13.90266329 -9.97272129 0.42190466 0.17647059 0.77647059 0.40000000
v -13.36508722 -6.35422388 0.14952579 0.15294118 0.77254902 0.38431373
v -9.17851049 7.66354049 8.17068500 0.83137255 0.88627451 0.90980392
v -9.13178197 14.56392205 7.93044764 0.81176471 0.88235294 0.89411765
v -8.90275126 0.12210331 8.20561026 0.83529412 0.88627451 0.91372549
v 3.95955148 14.24095279 8.08913804 0.82352941 0.88627451 0.90588235
v 3.92630747 14.36774090 8.07258283 0.82352941 0.88627451 0.90588235
v -15.18805055 0.77142516 3.12195631 0.40392157 0.81568627 0.58039216
v -13.98583181 13.85976242 3.33249393 0.42352941 0.81960784 0.59215686
v -15.13642458 2.22670667 7.19362375 0.74901961 0.87450980 0.84705882
v -15.06379250 9.05158292 7.00467875 0.73333333 0.87058824 0.83529412
v -15.21187143 0.57315488 5.31412665 0.59215686 0.84705882 0.72549020
v -3.23288585 -5.81593533 -0.01652804 0.14117647 0.77254902 0.37254902
v 4.40324489 -3.31709536 -0.06192238 0.13725490 0.77254902 0.36862745
v -9.12784508 -4.60961436 0.04159485 0.14509804 0.77254902 0.37647059
v -15.11378223 -8.87023987 0.90391902 0.21568627 0.78431373 0.43529412
v -15.18308326 -4.64277533 2.49038219 0.35294118 0.80784314 0.53725490
v -15.13206762 -1.94984325 1.36453438 0.25490196 0.79215686 0.46274510
v -15.09507850 -8.85262779 0.83579013 0.21176471 0.78431373 0.42745098
v -14.72475644 -10.45119228 0.64424249 0.19607843 0.78039216 0.41568627
v -14.79719257 -10.44304108 0.67439136 0.19607843 0.78039216 0.41960784
v -14.26759973 -6.85034858 0.37436465 0.17254902 0.77647059 0.40000000
v -15.10839661 -7.34643165 0.66483137 0.19607843 0.78039216 0.41960784
v 12.11228279 -14.76965279 8.13264735 0.82745098 0.88627451 0.90980392
v 12.19911551 -14.72050887 8.13657471 0.82745098 0.88627451 0.90980392
v -1.58969723 -14.17615871 8.17885010 0.83137255 0.88627451 0.91372549
v 15.10861034 12.05161598 0.52474747 0.18431373 0.78039216 0.40784314
v 15.12606427 12.10348786 0.57527428 0.18823529 0.78039216 0.41176471
v 14.63492893 14.40631836 0.95108514 0.21960784 0.78431373 0.43529412
v 15.04829325 12.10419673 0.47397923 0.18039216 0.78039216 0.40392157
v 14.53157269 14.43817547 0.80047560 0.20784314 0.78431373 0.42745098
v 14.57461184 14.45889911 0.90031690 0.21568627 0.78431373 0.43137255
v 15.01871291 13.82728075 0.96506509 0.22352941 0.78431373 0.43921569
v 13.92867380 12.59438141 0.26315754 0.16470588 0.77647059 0.39215686
v 12.17695348 13.04161228 0.20771973 0.15686275 0.77647059 0.38823529
v 13.97788551 12.59652961 0.26763445 0.16470588 0.77647059 0.39215686
v 13.38229923 14.94917227 0.58572049 0.19215686 0.78039216 0.41176471
v 12.76836863 14.86237907 0.49713039 0.18431373 0.78039216 0.40784314
v 13.63156341 -10.16995716 8.10698908 0.82745098 0.88627451 0.90588235
v 12.71834431 -10.10070054 8.14053322 0.83137255 0.88627451 0.90980392
v -14.99060840 4.97567717 1.56096670 0.27450980 0.79607843 0.47843137
v -14.98564112 -0.43852331 0.92939257 0.21960784 0.78431373 0.43529412
v -14.96693738 -0.42091123 0.86126369 0.21568627 0.78431373 0.43137255
v 14.56963683 -7.20883267 1.06346298 0.23137255 0.78823529 0.44313725
v 14.33079829 -1.56286083 0.13241397 0.15294118 0.77254902 0.38431373
v 15.01113758 5.47717123 0.17924962 0.15686275 0.77647059 0.38431373
v 15.02859151 5.52904311 0.22977643 0.16078431 0.77647059 0.38823529
v 11.29036633 -15.12226175 4.29767919 0.50588235 0.83137255 0.65490196
v 10.69602347 -15.03468715 7.34992821 0.76078431 0.87450980 0.85882353
v 2.35096164 -1.61048556 -0.07305253 0.13333333 0.77254902 0.36862745
v -11.18012833 -2.90300456 0.03046470 0.14509804 0.77254902 0.37647059
v -7.02330556 -1.17604876 -0.07496522 0.13333333 0.77254902 0.36862745
v 15.15215847 11.91633567 6.49374809 0.69019608 0.86274510 0.80000000
v 15.20047658 10.90588815 3.09720657 0.40392157 0.81568627 0.57647059
v 15.24646273 6.96743266 4.38952582 0.51372549 0.83529412 0.66274510
v 15.24711816 6.92946173 4.44993982 0.51764706 0.83529412 0.66666667
v 15.15344231 12.57710029 3.53776562 0.43921569 0.82352941 0.60784314
v 14.64320728 -11.54314334 2.32759864 0.33725490 0.80392157 0.52549020
v 15.10216196 1.19473244 1.49391208 0.26666667 0.79215686 0.47058824
v 14.95765494 -3.70850018 1.58897329 0.27450980 0.79607843 0.47843137
v 14.78978880 -11.38131914 3.31283040 0.41960784 0.81960784 0.59215686
v 15.24874348 1.35655664 2.47914385 0.34901961 0.80784314 0.53725490
v 15.29472963 -2.58189885 3.77146310 0.45882353 0.82352941 0.62352941
v 15.29538506 -2.61986978 3.83187710 0.46666667 0.82745098 0.62745098
v 15.27612153 1.83016906 5.44163519 0.60000000 0.84705882 0.73333333
v 15.17780691 -7.88098665 3.83834071 0.46666667 0.82745098 0.62745098
v -12.24453494 14.77210042 2.57488592 0.35686275 0.80784314 0.54509804
v -11.81382702 14.07006885 1.38412268 0.25882353 0.79215686 0.46666667
v -12.20050602 14.78663633 2.55573355 0.35686275 0.80784314 0.54117647
v -11.80534763 10.35850164 0.30093840 0.16470588 0.77647059 0.39215686
v -12.45391230 15.09702549 4.11273301 0.49019608 0.83137255 0.64313725
v -10.02850123 14.99694276 0.60736230 0.19215686 0.78039216 0.41568627
v -0.18897994 15.22593274 6.49839823 0.69019608 0.86274510 0.80000000
v 14.24620527 15.15155522 3.01468703 0.39607843 0.81568627 0.57254902
v 14.36811013 15.15361495 3.12293866 0.40392157 0.81568627 0.58039216
v 14.81221121 14.52199659 3.18768686 0.41176471 0.81568627 0.58431373
v -14.96192166 -10.74270568 3.90783034 0.47058824 0.82745098 0.63137255
v -14.95577585 -4.86168934 7.37379061 0.76470588 0.87450980 0.85882353
v -15.03122270 -6.51524114 5.49429351 0.60392157 0.85098039 0.73725490
v -14.64433504 -12.40502026 7.46418212 0.77254902 0.87843137 0.86666667
v -15.06046682 12.12067648 6.11693284 0.65882353 0.85882353 0.77647059
v -15.20854575 3.64224844 4.42638074 0.51372549 0.83529412 0.66666667
v -15.15753011 6.33518051 3.30053292 0.41960784 0.81960784 0.59215686
v -15.18135099 6.13691023 5.49270325 0.60392157 0.85098039 0.73725490
v -15.01110360 7.84650045 2.86539112 0.38431373 0.81176471 0.56078431
v -7.06608894 -10.73731195 0.25210457 0.16078431 0.77647059 0.39215686
v -11.05523755 -13.35715019 0.49342188 0.18431373 0.78039216 0.40784314
v -13.49862424 -13.14948840 0.58260632 0.18823529 0.78039216 0.41176471
v -13.04146754 -9.54864469 0.31272848 0.16862745 0.77647059 0.39607843
v -11.20394503 -14.89571915 3.33494348 0.42352941 0.81960784 0.59215686
v -12.89439900 -14.43946135 6.66651797 0.70588235 0.86666667 0.81176471
v -12.85658317 -14.40048738 6.77858375 0.71372549 0.86666667 0.81960784
v -12.91095369 -14.39284225 6.78687765 0.71372549 0.86666667 0.81960784
v -12.93065439 -14.32094096 3.06912709 0.40000000 0.81568627 0.57647059
v -7.54393969 -15.16300054 4.76978604 0.54509804 0.83921569 0.68627451
v -14.06589545 4.76506661 0.00915759 0.14117647 0.77254902 0.37647059
v -13.89511791 -1.25598078 0.07583653 0.14901961 0.77254902 0.38039216
v -13.97553727 -1.27363449 0.07833755 0.14901961 0.77254902 0.38039216
v -14.79763041 -1.75210549 0.30067539 0.16470588 0.77647059 0.39215686
v -14.67487493 5.15580285 0.56523659 0.18823529 0.78039216 0.41176471
v -11.79057838 2.17758482 -0.04072354 0.13725490 0.77254902 0.37254902
v 7.99676551 -15.19475169 3.11889304 0.40392157 0.81568627 0.58039216
v -0.95467761 -15.24574512 4.25470616 0.50196078 0.83137255 0.65490196
v 5.11550846 -15.17761854 5.53480034 0.60784314 0.85098039 0.73725490
v 12.97108481 14.80986356 7.86440470 0.80784314 0.88235294 0.89019608
v 12.93784080 14.93665167 7.84784949 0.80392157 0.88235294 0.89019608
v 14.41682361 4.76647225 7.94256004 0.81176471 0.88235294 0.89803922
v 14.93034280 13.83004367 7.30420431 0.75686275 0.87450980 0.85490196
v 14.93162665 14.49080828 4.34822184 0.50980392 0.83529412 0.65882353
v 14.46750775 4.82838386 7.89577897 0.80784314 0.88235294 0.89411765
v 15.00603896 13.29320857 6.87015413 0.72156863 0.87058824 0.82745098
v 14.66480785 15.23810487 6.52007536 0.69411765 0.86274510 0.80392157
v 14.73353915 15.14500495 7.72739142 0.79607843 0.88235294 0.88235294
v -0.14215342 15.19623209 7.69758134 0.79215686 0.88235294 0.88235294
v 12.91593602 15.00005094 7.83971654 0.80392157 0.88235294 0.89019608
v 5.64941689 14.57758183 7.99077289 0.81568627 0.88627451 0.89803922
v 14.59221893 15.23959253 6.55872349 0.69411765 0.86274510 0.80392157
v 14.66095022 15.14649260 7.76603955 0.79607843 0.88235294 0.88627451
v 14.71163437 15.20840422 7.71925847 0.79215686 0.88235294 0.88235294
v 8.32844927 -15.01253524 8.07738123 0.82352941 0.88627451 0.90588235
v 8.35058351 -15.05063142 8.02292827 0.81960784 0.88627451 0.90196078
v -5.31916023 -14.42668628 8.11529008 0.82745098 0.88627451 0.90980392
v -5.37353075 -14.41904116 8.12358398 0.82745098 0.88627451 0.90980392
v -0.00651675 -15.18919944 6.10649237 0.65882353 0.85882353 0.77647059
v 7.50206289 -14.89413470 8.11485274 0.82745098 0.88627451 0.90980392
v 6.06366932 -15.12107287 7.38658655 0.76470588 0.87450980 0.85882353
v -3.81919357 -15.11081824 6.72288028 0.70980392 0.86666667 0.81568627
v 2.77006851 -15.19356281 6.20780040 0.66666667 0.85882353 0.78431373
v 5.57598604 -14.99071515 1.35370660 0.25490196 0.79215686 0.46274510
v 5.54954455 -14.95371914 1.28760703 0.25098039 0.79215686 0.45882353
v 3.30210342 -13.96989437 0.62985730 0.19607843 0.78039216 0.41568627
v -7.03546243 -14.77442718 1.05467716 0.23137255 0.78823529 0.44313725
v -6.24634896 -14.41546199 0.66952747 0.19607843 0.78039216 0.41960784
v -3.37545708 -15.04170857 2.48951973 0.35294118 0.80784314 0.53725490
v 14.74866350 -12.46146827 4.36234445 0.50980392 0.83529412 0.66274510
v 15.15930007 1.28685504 6.92519941 0.72549020 0.87058824 0.83137255
v 15.23499623 0.75001994 6.49114924 0.69019608 0.86274510 0.80000000
v 15.28326313 -8.79931157 5.87308652 0.63921569 0.85490196 0.76078431
v 15.01318056 2.66372793 7.30160546 0.75686275 0.87450980 0.85490196
v 14.73094540 -12.49466098 4.39209576 0.51372549 0.83529412 0.66274510
v 14.15951812 -12.36780581 7.54256687 0.78039216 0.87843137 0.87058824
v 14.67874692 -7.74799749 7.54652538 0.78039216 0.87843137 0.87058824
v 14.99546246 2.63053521 7.33135677 0.76078431 0.87450980 0.85490196
v 15.22441973 -9.91265342 6.95235187 0.72941176 0.87058824 0.83137255
v -5.80186321 10.44241419 -0.04929258 0.13725490 0.77254902 0.37254902
v 7.90000431 5.71388580 -0.08613087 0.13333333 0.77254902 0.36862745
v -6.45042788 15.18093803 3.76250202 0.45882353 0.82352941 0.62352941
v 6.82862329 13.20114873 -0.09473302 0.13333333 0.77254902 0.36862745
v 7.98475732 15.10656051 0.27879082 0.16470588 0.77647059 0.39215686
v 7.37082672 15.01976731 0.19020072 0.15686275 0.77647059 0.38823529
v 7.42003843 15.02191551 0.19467763 0.15686275 0.77647059 0.38823529
v -3.52654615 7.85493240 -0.09917370 0.13333333 0.77254902 0.36862745
v -3.98098790 15.09539121 0.23797895 0.16078431 0.77647059 0.38823529
v 8.28394447 15.22429847 2.62364417 0.36470588 0.80784314 0.54509804
v -6.24153572 9.50195618 -0.05380187 0.13725490 0.77254902 0.36862745
v -14.02406442 7.72167547 0.32127562 0.16862745 0.77647059 0.39607843
v -12.20318911 12.37465250 0.60854714 0.19215686 0.78039216 0.41568627
v -14.46373693 6.78121746 0.31676633 0.16862745 0.77647059 0.39607843
v -14.48411561 12.15281012 2.63209591 0.36470588 0.80784314 0.54901961
v -14.45508089 12.22027461 2.63197158 0.36470588 0.80784314 0.54901961
v -14.50084538 12.07934444 2.65423937 0.36470588 0.80784314 0.54901961
v -14.71826519 12.45705220 4.18479716 0.49411765 0.83137255 0.65098039
v -14.70848717 12.53066377 4.18897103 0.49411765 0.83137255 0.65098039
v -14.02437297 11.51824304 1.44120834 0.26274510 0.79215686 0.47058824
v -14.66890197 8.18287617 0.93325544 0.21960784 0.78431373 0.43529412
v -12.28307610 12.43058104 0.68360033 0.20000000 0.78039216 0.41960784
v -12.23904718 12.44511695 0.66444796 0.19607843 0.78039216 0.41960784
v -14.83582368 9.54237951 2.67282166 0.36862745 0.81176471 0.54901961
v -14.49959500 6.85168192 0.37266714 0.17254902 0.77647059 0.40000000
v -14.45776398 9.80829078 0.68478517 0.20000000 0.78039216 0.41960784
v -2.23547960 -6.58865060 8.20976307 0.83529412 0.88627451 0.91372549
v 10.62682314 7.53019888 8.09329084 0.82745098 0.88627451 0.90588235
v 3.32706001 7.23451788 8.22779199 0.83529412 0.88627451 0.91372549
v 10.64011405 -7.06374414 8.20103183 0.83529412 0.88627451 0.91372549
v 12.07256194 -2.51319243 8.17144619 0.83137255 0.88627451 0.90980392
v 12.33859334 7.80342865 8.00305865 0.81960784 0.88627451 0.90196078
f 64 296 215
f 296 78 289
f 215 289 20
f 296 289 215
f 36 291 216
f 291 78 296
f 216 296 64
f 291 296 216
f 63 213 295
f 213 20 289
f 295 289 78
f 213 289 295
f 21 232 127
f 232 68 236
f 127 236 31
f 232 236 127
f 27 129 117
f 129 31 128
f 117 128 25
f 129 128 117
f 25 233 117
f 233 68 235
f 117 235 27
f 233 235 117
f 31 236 128
f 236 68 233
f 128 233 25
f 236 233 128
f 20 213 106
f 213 63 211
f 106 211 15
f 213 211 106
f 27 265 168
f 265 74 267
f 168 267 49
f 265 267 168
f 27 147 116
f 147 42 145
f 116 145 7
f 147 145 116
f 7 145 104
f 145 42 146
f 104 146 20
f 145 146 104
f 37 171 174
f 171 50 175
f 174 175 51
f 171 175 174
f 37 138 217
f 138 36 216
f 217 216 64
f 138 216 217
f 64 218 217
f 218 50 171
f 217 171 37
f 218 171 217
f 51 175 172
f 175 50 169
f 172 169 23
f 175 169 172
f 61 280 203
f 280 76 277
f 203 277 1
f 280 277 203
f 1 282 89
f 282 77 283
f 89 283 10
f 282 283 89
f 1 277 282
f 277 76 286
f 282 286 77
f 277 286 282
f 27 235 118
f 235 68 234
f 118 234 26
f 235 234 118
f 26 264 118
f 264 74 265
f 118 265 27
f 264 265 118
f 68 269 234
f 269 74 264
f 234 264 26
f 269 264 234
f 29 123 125
f 123 21 124
f 125 124 30
f 123 124 125
f 30 124 130
f 124 21 127
f 130 127 31
f 124 127 130
f 30 230 125
f 230 67 229
f 125 229 29
f 230 229 125
f 80 309 312
f 309 63 299
f 312 299 79
f 309 299 312
f 80 302 306
f 302 15 151
f 306 151 44
f 302 151 306
f 79 300 312
f 300 69 311
f 312 311 80
f 300 311 312
f 66 223 310
f 223 19 304
f 310 304 80
f 223 304 310
f 80 304 305
f 304 19 108
f 305 108 20
f 304 108 305
f 10 167 91
f 167 49 166
f 91 166 8
f 167 166 91
f 8 166 262
f 166 49 267
f 262 267 74
f 166 267 262
f 8 88 91
f 88 9 92
f 91 92 10
f 88 92 91
f 74 263 262
f 263 9 88
f 262 88 8
f 263 88 262
f 45 226 154
f 226 66 224
f 154 224 22
f 226 224 154
f 45 153 226
f 153 19 223
f 226 223 66
f 153 223 226
f 35 137 173
f 137 37 174
f 173 174 51
f 137 174 173
f 36 138 136
f 138 37 137
f 136 137 35
f 138 137 136
f 51 172 173
f 172 23 134
f 173 134 35
f 172 134 173
f 35 134 136
f 134 23 135
f 136 135 36
f 134 135 136
f 17 212 287
f 212 63 295
f 287 295 78
f 212 295 287
f 78 297 287
f 297 69 238
f 287 238 17
f 297 238 287
f 79 299 298
f 299 63 212
f 298 212 17
f 299 212 298
f 17 238 298
f 238 69 300
f 298 300 79
f 238 300 298
f 28 119 290
f 119 18 288
f 290 288 78
f 119 288 290
f 28 120 119
f 120 23 111
f 119 111 18
f 120 111 119
f 78 292 290
f 292 52 177
f 290 177 28
f 292 177 290
f 28 177 120
f 177 52 176
f 120 176 23
f 177 176 120
f 24 112 170
f 112 23 169
f 170 169 50
f 112 169 170
f 18 111 187
f 111 23 188
f 187 188 56
f 111 188 187
f 56 186 187
f 186 1 97
f 187 97 18
f 186 97 187
f 23 112 188
f 112 24 189
f 188 189 56
f 112 189 188
f 10 92 90
f 92 9 87
f 90 87 2
f 92 87 90
f 2 82 90
f 82 1 89
f 90 89 10
f 82 89 90
f 59 279 207
f 279 76 280
f 207 280 61
f 279 280 207
f 59 195 279
f 195 12 278
f 279 278 76
f 195 278 279
f 61 206 207
f 206 39 198
f 207 198 59
f 206 198 207
f 59 196 199
f 196 24 170
f 199 170 50
f 196 170 199
f 63 309 214
f 309 80 308
f 214 308 62
f 309 308 214
f 62 308 210
f 308 80 306
f 210 306 44
f 308 306 210
f 62 209 214
f 209 15 211
f 214 211 63
f 209 211 214
f 44 151 210
f 151 15 209
f 210 209 62
f 151 209 210
f 20 106 105
f 106 15 95
f 105 95 14
f 106 95 105
f 15 302 95
f 302 80 301
f 95 301 14
f 302 301 95
f 81 318 314
f 318 71 247
f 314 247 33
f 318 247 314
f 81 314 315
f 314 33 148
f 315 148 42
f 314 148 315
f 81 315 313
f 315 42 147
f 313 147 27
f 315 147 313
f 27 168 313
f 168 49 316
f 313 316 81
f 168 316 313
f 19 153 101
f 153 45 152
f 101 152 5
f 153 152 101
f 5 152 110
f 152 45 154
f 110 154 22
f 152 154 110
f 22 221 110
f 221 65 220
f 110 220 5
f 221 220 110
f 5 220 114
f 220 65 222
f 114 222 27
f 220 222 114
f 4 126 113
f 126 31 129
f 113 129 27
f 126 129 113
f 27 222 113
f 222 65 219
f 113 219 4
f 222 219 113
f 4 219 109
f 219 65 221
f 109 221 22
f 219 221 109
f 22 159 109
f 159 47 158
f 109 158 4
f 159 158 109
f 48 162 163
f 162 30 130
f 163 130 31
f 162 130 163
f 31 126 163
f 126 4 161
f 163 161 48
f 126 161 163
f 48 161 165
f 161 4 158
f 165 158 47
f 161 158 165
f 22 224 150
f 224 66 225
f 150 225 43
f 224 225 150
f 43 160 150
f 160 47 159
f 150 159 22
f 160 159 150
f 36 135 179
f 135 23 178
f 179 178 53
f 135 178 179
f 23 176 178
f 176 52 180
f 178 180 53
f 176 180 178
f 78 291 293
f 291 36 179
f 293 179 53
f 291 179 293
f 53 180 293
f 180 52 292
f 293 292 78
f 180 292 293
f 38 140 205
f 140 39 206
f 205 206 61
f 140 206 205
f 61 204 205
f 204 24 139
f 205 139 38
f 204 139 205
f 38 197 140
f 197 59 198
f 140 198 39
f 197 198 140
f 24 196 139
f 196 59 197
f 139 197 38
f 196 197 139
f 60 201 208
f 201 24 204
f 208 204 61
f 201 204 208
f 60 202 201
f 202 56 189
f 201 189 24
f 202 189 201
f 61 203 208
f 203 1 200
f 208 200 60
f 203 200 208
f 1 186 200
f 186 56 202
f 200 202 60
f 186 202 200
f 29 121 275
f 121 11 273
f 275 273 75
f 121 273 275
f 75 274 275
f 274 21 123
f 275 123 29
f 274 123 275
f 18 97 98
f 97 1 83
f 98 83 3
f 97 83 98
f 3 93 98
f 93 11 99
f 98 99 18
f 93 99 98
f 3 272 93
f 272 75 273
f 93 273 11
f 272 273 93
f 1 82 83
f 82 2 84
f 83 84 3
f 82 84 83
f 2 271 84
f 271 75 272
f 84 272 3
f 271 272 84
f 57 191 268
f 191 9 263
f 268 263 74
f 191 263 268
f 57 190 191
f 190 2 87
f 191 87 9
f 190 87 191
f 32 266 237
f 266 74 269
f 237 269 68
f 266 269 237
f 32 276 131
f 276 75 271
f 131 271 2
f 276 271 131
f 68 232 237
f 232 21 132
f 237 132 32
f 232 132 237
f 21 274 132
f 274 75 276
f 132 276 32
f 274 276 132
f 13 155 100
f 155 46 156
f 100 156 18
f 155 156 100
f 18 99 100
f 99 11 94
f 100 94 13
f 99 94 100
f 40 157 141
f 157 46 155
f 141 155 13
f 157 155 141
f 13 94 122
f 94 11 121
f 122 121 29
f 94 121 122
f 29 229 122
f 229 67 228
f 122 228 13
f 229 228 122
f 78 288 294
f 288 18 192
f 294 192 58
f 288 192 294
f 18 156 192
f 156 46 194
f 192 194 58
f 156 194 192
f 58 243 294
f 243 69 297
f 294 297 78
f 243 297 294
f 58 193 243
f 193 40 239
f 243 239 69
f 193 239 243
f 58 194 193
f 194 46 157
f 193 157 40
f 194 157 193
f 16 303 107
f 303 80 305
f 107 305 20
f 303 305 107
f 20 105 107
f 105 14 96
f 107 96 16
f 105 96 107
f 16 96 303
f 96 14 301
f 303 301 80
f 96 301 303
f 10 283 181
f 283 77 284
f 181 284 54
f 283 284 181
f 71 318 249
f 318 81 317
f 249 317 54
f 318 317 249
f 54 182 181
f 182 49 167
f 181 167 10
f 182 167 181
f 54 317 182
f 317 81 316
f 182 316 49
f 317 316 182
f 12 195 250
f 195 59 253
f 250 253 72
f 195 253 250
f 76 278 281
f 278 12 250
f 281 250 72
f 278 250 281
f 72 253 251
f 253 59 199
f 251 199 50
f 253 199 251
f 77 286 285
f 286 76 281
f 285 281 72
f 286 281 285
f 72 251 254
f 251 50 218
f 254 218 64
f 251 218 254
f 72 252 285
f 252 54 284
f 285 284 77
f 252 284 285
f 71 249 255
f 249 54 252
f 255 252 72
f 249 252 255
f 42 148 149
f 148 33 133
f 149 133 34
f 148 133 149
f 33 247 133
f 247 71 248
f 133 248 34
f 247 248 133
f 19 101 102
f 101 5 85
f 102 85 6
f 101 85 102
f 6 86 103
f 86 7 104
f 103 104 20
f 86 104 103
f 20 108 103
f 108 19 102
f 103 102 6
f 108 102 103
f 27 116 115
f 116 7 86
f 115 86 6
f 116 86 115
f 6 85 115
f 85 5 114
f 115 114 27
f 85 114 115
f 30 162 143
f 162 48 164
f 143 164 41
f 162 164 143
f 67 230 231
f 230 30 143
f 231 143 41
f 230 143 231
f 69 239 240
f 239 40 144
f 240 144 41
f 239 144 240
f 41 164 240
f 164 48 241
f 240 241 69
f 164 241 240
f 41 142 231
f 142 13 228
f 231 228 67
f 142 228 231
f 40 141 144
f 141 13 142
f 144 142 41
f 141 142 144
f 66 310 227
f 310 80 307
f 227 307 55
f 310 307 227
f 55 183 227
f 183 43 225
f 227 225 66
f 183 225 227
f 55 307 242
f 307 80 311
f 242 311 69
f 307 311 242
f 69 241 242
f 241 48 185
f 242 185 55
f 241 185 242
f 55 185 184
f 185 48 165
f 184 165 47
f 185 165 184
f 47 160 184
f 160 43 183
f 184 183 55
f 160 183 184
f 74 266 270
f 266 32 245
f 270 245 70
f 266 245 270
f 70 245 244
f 245 32 131
f 244 131 2
f 245 131 244
f 70 246 270
f 246 57 268
f 270 268 74
f 246 268 270
f 2 190 244
f 190 57 246
f 244 246 70
f 190 246 244
f 64 215 259
f 215 20 256
f 259 256 73
f 215 256 259
f 73 261 259
f 261 72 254
f 259 254 64
f 261 254 259
f 71 255 260
f 255 72 261
f 260 261 73
f 255 261 260
f 73 257 260
f 257 34 248
f 260 248 71
f 257 248 260
f 20 146 256
f 146 42 258
f 256 258 73
f 146 258 256
f 42 149 258
f 149 34 257
f 258 257 73
f 149 257 258

