# https://github.com/mikedh/trimesh
v 222.67198110 9.90393324 152.33553602 0.83529412 0.88627451 0.91372549
v 222.61972960 9.85866870 152.36339309 0.83921569 0.89019608 0.91764706
v 203.23960359 35.81456990 150.38684298 0.82745098 0.88627451 0.90980392
v 203.15745469 35.83322788 150.47652918 0.82745098 0.88627451 0.90980392
v 185.87966169 48.16813718 152.00349334 0.83529412 0.88627451 0.91372549
v 185.89646381 48.38054567 151.99898267 0.83529412 0.88627451 0.91372549
v -6.80770519 3.84071987 0.99693240 0.13333333 0.77254902 0.36862745
v -59.75877910 28.31978258 0.64650522 0.13333333 0.77254902 0.36862745
v -49.11764716 34.51474049 0.58854591 0.13333333 0.77254902 0.36862745
v -561.78280401 737.21022690 70.52021767 0.45490196 0.82352941 0.61960784
v -561.66837207 737.09990865 70.53933417 0.45490196 0.82352941 0.61960784
v -561.69148632 737.24425826 70.37761391 0.45490196 0.82352941 0.61960784
v 77.06667101 -103.44493423 2.10564968 0.13725490 0.77254902 0.37254902
v 67.11647953 -102.91833449 2.01803317 0.13725490 0.77254902 0.37254902
v -51.17804876 156.24521675 0.53221942 0.13333333 0.77254902 0.36862745
v -2996.08732585 2074.36787557 129.02235787 0.72941176 0.87058824 0.83137255
v -2996.07032992 2074.40138906 129.17025693 0.72941176 0.87058824 0.83137255
v -2996.01520168 2074.42466377 128.99908444 0.72941176 0.87058824 0.83137255
v -1234.12013250 866.10474794 27.78409073 0.25882353 0.79215686 0.46666667
v -884.69231122 627.66234986 7.84905463 0.16470588 0.77647059 0.39215686
v -2669.93265772 1827.05245127 108.30689097 0.63137255 0.85490196 0.75686275
v -2670.20100624 1827.27154897 108.24346635 0.63137255 0.85490196 0.75686275
v -1365.19121379 945.74374741 35.29084610 0.29411765 0.79607843 0.49411765
v -1365.14675802 945.60251551 35.30053133 0.29411765 0.79607843 0.49411765
v 24.25313751 -124.41316917 150.92935187 0.83137255 0.88627451 0.90980392
v 135.78587275 -166.52457791 19.32764446 0.21960784 0.78431373 0.43529412
v 562.49792984 -271.34610896 109.29115630 0.63529412 0.85490196 0.76078431
v 562.53420215 -271.50933210 109.37281349 0.63921569 0.85490196 0.76078431
v 562.60471891 -271.27486738 109.31051629 0.63529412 0.85490196 0.76078431
v 562.53788097 -271.32642357 109.39414060 0.63921569 0.85490196 0.76078431
v 111.82696865 -174.81218173 19.76063837 0.21960784 0.78431373 0.43529412
v 176.98264742 -231.04543178 34.36547604 0.29019608 0.79607843 0.49019608
v -289.00305365 54.85339061 18.74980347 0.21568627 0.78431373 0.43137255
v -288.80193479 54.75553807 18.59022996 0.21568627 0.78431373 0.43137255
v -279.18611204 69.89281407 15.11109615 0.20000000 0.78039216 0.41960784
v 222.64585535 9.88130097 152.34946455 0.83529412 0.88627451 0.91372549
v 212.91471790 22.86858056 151.40603260 0.83137255 0.88627451 0.91372549
v 203.19852914 35.82389889 150.43168608 0.82745098 0.88627451 0.90980392
v 204.24969565 29.01340294 152.18344321 0.83529412 0.88627451 0.91372549
v 204.28422246 29.14223946 152.16725934 0.83529412 0.88627451 0.91372549
v 204.25809671 29.11960719 152.18118788 0.83529412 0.88627451 0.91372549
v 194.52695925 42.10688678 151.23775592 0.83137255 0.88627451 0.90980392
v 185.88806275 48.27434143 152.00123800 0.83529412 0.88627451 0.91372549
v -27.96267617 19.17773018 0.79273915 0.13333333 0.77254902 0.36862745
v -54.43821313 31.41726153 0.61752556 0.13333333 0.77254902 0.36862745
v -179.25545869 386.46656826 110.50793168 0.64313725 0.85490196 0.76470588
v -187.88595413 392.74022716 111.26915842 0.64705882 0.85490196 0.76862745
v -561.72558804 737.15506777 70.52977592 0.45490196 0.82352941 0.61960784
v -179.22594136 386.52941408 110.38222845 0.64313725 0.85490196 0.76470588
v -179.26701581 386.53874307 110.42707154 0.64313725 0.85490196 0.76470588
v -561.73714516 737.22724258 70.44891579 0.45490196 0.82352941 0.61960784
v -561.67992919 737.17208346 70.45847404 0.45490196 0.82352941 0.61960784
v 35.12948291 -49.80210718 1.55129104 0.13725490 0.77254902 0.36862745
v 30.15438717 -49.53880731 1.50748278 0.13725490 0.77254902 0.36862745
v 3.67885022 -37.29927596 1.33226919 0.13333333 0.77254902 0.36862745
v 8.99941619 -34.20179700 1.30328954 0.13333333 0.77254902 0.36862745
v 72.09157527 -103.18163436 2.06184142 0.13725490 0.77254902 0.37254902
v -28.99287697 80.04296831 0.76457591 0.13333333 0.77254902 0.36862745
v -55.46841393 92.28249966 0.58936232 0.13333333 0.77254902 0.36862745
v -50.14784796 95.37997862 0.56038266 0.13333333 0.77254902 0.36862745
v -306.43476754 446.74473751 35.45491666 0.29411765 0.79607843 0.49411765
v 12.94431113 26.40014126 1.31893455 0.13333333 0.77254902 0.36862745
v -1386.72530016 1042.13002888 140.76682501 0.78431373 0.87843137 0.87450980
v -1405.09533411 1061.28476312 140.58687513 0.78431373 0.87843137 0.87450980
v -1405.08693305 1061.39096736 140.58461980 0.78431373 0.87843137 0.87450980
v -1778.92656696 1405.80580798 99.84523730 0.59215686 0.84705882 0.72549020
v -1778.86935099 1405.75064885 99.85479555 0.59215686 0.84705882 0.72549020
v -1778.88090812 1405.82282366 99.77393542 0.59215686 0.84705882 0.72549020
v -2996.07882788 2074.38463231 129.09630740 0.72941176 0.87058824 0.83137255
v -1778.85334400 1405.83446102 99.68834918 0.59215686 0.84705882 0.72549020
v -2996.05126376 2074.39626967 129.01072116 0.72941176 0.87058824 0.83137255
v -2996.04276580 2074.41302641 129.08467068 0.72941176 0.87058824 0.83137255
v -2115.06766709 1470.26470585 78.39158759 0.49411765 0.83137255 0.64705882
v -472.22554516 327.99106622 4.24777992 0.14901961 0.77254902 0.38039216
v -723.19189877 682.45330406 39.11333427 0.30980392 0.80000000 0.50588235
v -408.78791584 262.37200768 4.93354390 0.15294118 0.77254902 0.38431373
v -467.93517999 391.95378331 4.19063702 0.14901961 0.77254902 0.38039216
v -1940.35375645 1351.04350681 68.42406954 0.44705882 0.82352941 0.61176471
v -1059.40622186 746.88354890 17.81657268 0.21176471 0.78431373 0.42745098
v -2833.00999178 1950.71016342 118.66462442 0.68235294 0.86274510 0.79215686
v -2833.00149382 1950.72692016 118.73857395 0.68235294 0.86274510 0.79215686
v -2833.14416604 1950.81971227 118.63291211 0.68235294 0.86274510 0.79215686
v -2833.10810396 1950.84810637 118.62127539 0.67843137 0.86274510 0.79215686
v -1952.16056937 1346.68814845 68.01377854 0.44705882 0.82352941 0.61176471
v -1777.44665873 1227.46694941 58.04626049 0.40000000 0.81568627 0.57647059
v -2670.06683198 1827.16200012 108.27517866 0.63137255 0.85490196 0.75686275
v -1124.94176250 786.70304863 21.56995037 0.22745098 0.78823529 0.44313725
v -2017.69611001 1386.50764819 71.76715622 0.46274510 0.82745098 0.62352941
v -1124.91953462 786.63243269 21.57479298 0.22745098 0.78823529 0.44313725
v -2017.67388213 1386.43703224 71.77199884 0.46274510 0.82745098 0.62352941
v -1365.16898591 945.67313146 35.29568871 0.29411765 0.79607843 0.49411765
v 123.43643355 -57.27725023 151.64637248 0.83529412 0.88627451 0.91372549
v -1485.90859621 974.99410994 140.04980440 0.78039216 0.87843137 0.87058824
v -1322.83976011 851.31964105 129.61812142 0.73333333 0.87058824 0.83529412
v 106.42627188 -134.98475607 10.71664707 0.18039216 0.78039216 0.40392157
v 319.78230043 -187.39552159 55.69840299 0.38823529 0.81176471 0.56470588
v 349.14190129 -218.93534343 64.30940038 0.42745098 0.81960784 0.59607843
v 293.39366983 -197.96125063 130.15108268 0.73333333 0.87058824 0.83529412
v 562.51606599 -271.42772053 109.33198490 0.63529412 0.85490196 0.76078431
v 382.92216125 -117.73014874 129.84867964 0.73333333 0.87058824 0.83529412
v 382.88108680 -117.72081975 129.89352274 0.73333333 0.87058824 0.83529412
v 0.45661629 232.98469544 89.84406510 0.54509804 0.83921569 0.69019608
v 319.83569496 -187.35990080 55.70808299 0.38823529 0.81176471 0.56470588
v 255.71333507 -57.51482531 54.92136786 0.38431373 0.81176471 0.56470588
v 562.55132437 -271.31048817 109.30083630 0.63529412 0.85490196 0.76078431
v 562.56946053 -271.39209974 109.34166489 0.63529412 0.85490196 0.76078431
v 392.60493103 -130.71124516 130.86483831 0.73725490 0.87058824 0.83921569
v 392.57880529 -130.73387743 130.87876685 0.73725490 0.87058824 0.83921569
v 382.84766783 -117.74659785 129.93533489 0.73333333 0.87058824 0.83529412
v 293.39550924 -197.86979637 130.16174624 0.73333333 0.87058824 0.83529412
v 562.53604156 -271.41787783 109.38347705 0.63921569 0.85490196 0.76078431
v 562.57129994 -271.30064547 109.35232845 0.63921569 0.85490196 0.76078431
v 94.44681983 -139.12855798 10.93314403 0.18039216 0.78039216 0.40392157
v 89.47172409 -138.86525811 10.88933577 0.18039216 0.78039216 0.40392157
v 127.02465921 -167.24518301 18.23556286 0.21176471 0.78431373 0.43137255
v 100.61789246 -177.72930048 92.64741396 0.56078431 0.84313725 0.69803922
v 156.38426008 -198.78500485 26.84656025 0.25490196 0.79215686 0.46274510
v 369.74028863 -251.19577037 71.82831617 0.46274510 0.82745098 0.62352941
v 369.75842478 -251.27738194 71.86914476 0.46274510 0.82745098 0.62352941
v 144.40480803 -202.92880676 27.06305721 0.25490196 0.79215686 0.46274510
v -1479.46785569 940.95292094 63.52834722 0.42352941 0.81960784 0.59607843
v -1479.60202994 941.06246979 63.49663491 0.42352941 0.81960784 0.59607843
v -132.37495807 -34.77988928 84.83957767 0.52156863 0.83529412 0.67058824
v -56.01020312 -88.09602059 26.55763976 0.25098039 0.79215686 0.45882353
v -110.84272763 -24.08139821 10.30413156 0.17647059 0.77647059 0.40392157
v -586.74712300 341.20894396 13.21964229 0.19215686 0.78039216 0.41176471
v -1479.50147051 941.01354352 63.41684815 0.42352941 0.81960784 0.59215686
v -826.97434641 500.17902679 26.94538064 0.25490196 0.79215686 0.46274510
v -88.48748307 -60.02832183 19.17543417 0.21960784 0.78431373 0.43529412
v -55.90964369 -88.14494686 26.47785300 0.25098039 0.79215686 0.45882353
v -288.90249422 54.80446434 18.67001671 0.21568627 0.78431373 0.43137255
v -106.03481625 -16.51276021 8.56456466 0.16862745 0.77647059 0.39607843
v -581.93921163 348.77758196 11.48007539 0.18039216 0.78039216 0.40784314
v -283.99402341 62.32417607 16.85066305 0.20784314 0.78431373 0.42745098
f 29 104 102
f 104 15 61
f 102 61 12
f 104 61 102
f 17 93 63
f 93 25 92
f 63 92 2
f 93 92 63
f 2 92 108
f 92 25 110
f 108 110 30
f 92 110 108
f 16 69 71
f 69 17 72
f 71 72 18
f 69 72 71
f 18 72 70
f 72 17 68
f 70 68 12
f 72 68 70
f 29 102 100
f 102 12 49
f 100 49 3
f 102 49 100
f 13 62 103
f 62 15 104
f 103 104 29
f 62 104 103
f 20 75 77
f 75 12 61
f 77 61 15
f 75 61 77
f 20 78 75
f 78 18 70
f 75 70 12
f 78 70 75
f 4 109 101
f 109 30 112
f 101 112 29
f 109 112 101
f 29 100 101
f 100 3 38
f 101 38 4
f 100 38 101
f 4 38 50
f 38 3 49
f 50 49 12
f 38 49 50
f 25 123 116
f 123 33 124
f 116 124 32
f 123 124 116
f 32 124 130
f 124 33 131
f 130 131 34
f 124 131 130
f 8 74 59
f 74 20 77
f 59 77 15
f 74 77 59
f 20 74 76
f 74 8 55
f 76 55 14
f 74 55 76
f 24 89 128
f 89 20 126
f 128 126 34
f 89 126 128
f 2 108 36
f 108 30 107
f 36 107 1
f 108 107 36
f 30 109 107
f 109 4 37
f 107 37 1
f 109 37 107
f 2 36 41
f 36 1 40
f 41 40 6
f 36 40 41
f 6 40 42
f 40 1 37
f 42 37 4
f 40 37 42
f 26 117 95
f 117 32 115
f 95 115 13
f 117 115 95
f 28 111 98
f 111 30 110
f 98 110 25
f 111 110 98
f 25 116 98
f 116 32 119
f 98 119 28
f 116 119 98
f 29 112 106
f 112 30 111
f 106 111 28
f 112 111 106
f 15 62 58
f 62 13 53
f 58 53 7
f 62 53 58
f 13 57 53
f 57 14 54
f 53 54 7
f 57 54 53
f 34 126 134
f 126 20 133
f 134 133 35
f 126 133 134
f 35 132 134
f 132 14 125
f 134 125 34
f 132 125 134
f 20 76 133
f 76 14 132
f 133 132 35
f 76 132 133
f 13 115 113
f 115 32 120
f 113 120 31
f 115 120 113
f 31 114 113
f 114 14 57
f 113 57 13
f 114 57 113
f 31 120 129
f 120 32 130
f 129 130 34
f 120 130 129
f 34 125 129
f 125 14 114
f 129 114 31
f 125 114 129
f 16 71 82
f 71 18 83
f 82 83 22
f 71 83 82
f 22 90 127
f 90 24 128
f 127 128 34
f 90 128 127
f 34 131 127
f 131 33 122
f 127 122 22
f 131 122 127
f 11 46 52
f 46 4 50
f 52 50 12
f 46 50 52
f 11 47 46
f 47 6 42
f 46 42 4
f 47 42 46
f 17 65 67
f 65 6 47
f 67 47 11
f 65 47 67
f 5 64 39
f 64 17 63
f 39 63 2
f 64 63 39
f 2 41 39
f 41 6 43
f 39 43 5
f 41 43 39
f 5 43 64
f 43 6 65
f 64 65 17
f 43 65 64
f 27 96 105
f 96 13 103
f 105 103 29
f 96 103 105
f 27 97 96
f 97 26 95
f 96 95 13
f 97 95 96
f 32 117 118
f 117 26 97
f 118 97 27
f 117 97 118
f 29 106 105
f 106 28 99
f 105 99 27
f 106 99 105
f 27 99 118
f 99 28 119
f 118 119 32
f 99 119 118
f 9 45 60
f 45 8 59
f 60 59 15
f 45 59 60
f 15 58 60
f 58 7 44
f 60 44 9
f 58 44 60
f 9 56 45
f 56 14 55
f 45 55 8
f 56 55 45
f 9 44 56
f 44 7 54
f 56 54 14
f 44 54 56
f 18 78 73
f 78 20 79
f 73 79 19
f 78 79 73
f 19 84 73
f 84 22 83
f 73 83 18
f 84 83 73
f 20 85 79
f 85 22 84
f 79 84 19
f 85 84 79
f 20 89 87
f 89 24 91
f 87 91 23
f 89 91 87
f 23 88 87
f 88 22 85
f 87 85 20
f 88 85 87
f 24 90 91
f 90 22 88
f 91 88 23
f 90 88 91
f 21 81 80
f 81 17 69
f 80 69 16
f 81 69 80
f 16 82 80
f 82 22 86
f 80 86 21
f 82 86 80
f 25 93 94
f 93 17 81
f 94 81 21
f 93 81 94
f 21 121 94
f 121 33 123
f 94 123 25
f 121 123 94
f 21 86 121
f 86 22 122
f 121 122 33
f 86 122 121
f 12 68 51
f 68 17 66
f 51 66 10
f 68 66 51
f 10 48 51
f 48 11 52
f 51 52 12
f 48 52 51
f 17 67 66
f 67 11 48
f 66 48 10
f 67 48 66

