# https://github.com/mikedh/trimesh
v 203.80991701 -9.48758116 152.44920803 0.83529412 0.88627451 0.91372549
v 204.93367772 -5.67259719 152.34655821 0.83529412 0.88627451 0.91372549
v 229.25295374 -56.69876118 148.53876510 0.81960784 0.88627451 0.90196078
v 8.05395064 -1.25485222 0.75561358 0.13333333 0.77254902 0.36862745
v 210.12999224 -5.31723881 150.74156260 0.82745098 0.88627451 0.90980392
v 163.89171454 73.71160519 131.48372517 0.74117647 0.87058824 0.83921569
v 142.89829617 79.60981485 129.75873473 0.72941176 0.87058824 0.83137255
v 215.04211732 -59.90737425 151.47346652 0.83137255 0.88627451 0.91372549
v 214.92356311 -59.96616895 151.48585637 0.83137255 0.88627451 0.91372549
v 144.07705165 75.35278412 152.30783266 0.83529412 0.88627451 0.91372549
v 144.28788367 75.38200603 152.41250247 0.83529412 0.88627451 0.91372549
v 170.58542764 67.38627976 147.26074046 0.81176471 0.88235294 0.89803922
v 170.61034474 67.35874252 147.29580898 0.81176471 0.88235294 0.89803922
v 170.52535444 67.39083677 147.42526573 0.81176471 0.88235294 0.89803922
v 191.69582978 -63.77430210 152.47740162 0.83529412 0.88627451 0.91372549
v 188.31395132 -41.32929576 152.53152744 0.83921569 0.89019608 0.91764706
v 29.71035593 -56.43401293 147.68487523 0.81568627 0.88627451 0.89803922
v 213.40206010 -69.18805962 147.10195164 0.81176471 0.88235294 0.89411765
v 73.64684839 -63.30702069 151.89019400 0.83529412 0.88627451 0.91372549
v -11.30082187 -1.10796199 1.14347899 0.13333333 0.77254902 0.36862745
v 202.10177461 -71.32378096 151.13033446 0.83137255 0.88627451 0.90980392
v 202.14322404 -71.39073433 151.05591233 0.83137255 0.88627451 0.90980392
v 219.69128421 -74.64970493 137.44029975 0.76862745 0.87843137 0.86274510
v 196.57937813 -44.50392982 104.77267632 0.61568627 0.85098039 0.74117647
v 180.01570242 -68.61576509 152.51298884 0.83529412 0.88627451 0.91372549
v 19.71972980 -67.16626117 136.35799842 0.76078431 0.87450980 0.85882353
v 187.86104218 -74.54780357 151.15309967 0.83137255 0.88627451 0.90980392
v 187.82379356 -74.54844152 151.40248557 0.83137255 0.88627451 0.90980392
v 221.79650924 -1.32856347 123.68346790 0.70196078 0.86666667 0.81176471
v 145.08842333 -44.49665769 152.47342955 0.83529412 0.88627451 0.91372549
v -85.74038823 40.91866832 0.96786272 0.13333333 0.77254902 0.36862745
v -85.58218829 40.97158614 0.90930628 0.13333333 0.77254902 0.36862745
v -85.90174716 40.85393588 1.03832204 0.13333333 0.77254902 0.36862745
v -86.84025691 41.20507284 3.36800149 0.14509804 0.77254902 0.37647059
v -86.74467381 41.17879909 3.56764348 0.14509804 0.77254902 0.37647059
v -86.91914471 41.05072886 3.39098506 0.14509804 0.77254902 0.37647059
v -86.90869140 41.15221976 3.36548282 0.14509804 0.77254902 0.37647059
v 159.13463427 -27.71428244 152.48718129 0.83529412 0.88627451 0.91372549
v -12.31979859 -3.88110853 1.74708994 0.13725490 0.77254902 0.36862745
v 84.48442291 -68.70531616 150.68404733 0.82745098 0.88627451 0.90980392
v 84.47606239 -68.76739116 150.63127670 0.82745098 0.88627451 0.90980392
v -20.15921293 70.99121415 12.51557013 0.18431373 0.78039216 0.40784314
v -20.10865221 70.95918918 12.43026119 0.18431373 0.78039216 0.40784314
v -60.52657918 59.69823772 6.77347649 0.16078431 0.77647059 0.38823529
v -60.61855858 59.82678882 6.88596200 0.16078431 0.77647059 0.38823529
v 94.95074122 91.05658899 45.38649213 0.33725490 0.80392157 0.52941176
v 94.94641531 91.08223011 45.49807186 0.34117647 0.80392157 0.52941176
v -23.86691504 66.56272241 3.88613759 0.14509804 0.77254902 0.37647059
v -23.83549579 66.64951696 4.06388060 0.14509804 0.77254902 0.38039216
v 41.11528151 71.66368224 2.29988046 0.13725490 0.77254902 0.37254902
v 56.28491841 79.27447948 14.93592545 0.19607843 0.78039216 0.41960784
v 56.09596528 79.49983327 14.97019781 0.19607843 0.78039216 0.41960784
v -1.42302389 -46.53468700 19.53852789 0.21960784 0.78431373 0.43529412
v -1.36182941 -46.52795118 19.53273721 0.21960784 0.78431373 0.43529412
v -1.49905121 -46.56454574 19.67793784 0.21960784 0.78431373 0.43529412
v 41.80794256 72.21500488 2.80802628 0.14117647 0.77254902 0.37254902
v 42.03696248 72.12351448 2.78283617 0.14117647 0.77254902 0.37254902
v -3.54594702 85.19136714 48.85705269 0.35686275 0.80784314 0.54117647
v -3.72833724 85.10619898 48.99041527 0.35686275 0.80784314 0.54117647
v 93.61582013 -28.61112248 2.61213872 0.14117647 0.77254902 0.37254902
v 93.65120087 -28.28226435 2.64935383 0.14117647 0.77254902 0.37254902
v 57.61087135 98.00067652 60.55897838 0.40784314 0.81568627 0.58431373
v 57.66118992 97.96690857 60.68525599 0.41176471 0.81568627 0.58431373
v 52.90234753 95.50001694 54.78529207 0.38431373 0.81176471 0.56078431
v -17.44006219 73.68407546 18.91261398 0.21568627 0.78431373 0.43137255
v 204.37179736 -7.58008918 152.39788312 0.83529412 0.88627451 0.91372549
v 217.09331573 -31.18567918 150.44266166 0.82745098 0.88627451 0.90980392
v 207.53183498 -5.49491800 151.54406040 0.83137255 0.88627451 0.91372549
v 219.69147299 -31.00799999 149.64016385 0.82352941 0.88627451 0.90588235
v 153.39500535 76.66071002 130.62122995 0.73725490 0.87058824 0.83529412
v 209.98789752 -32.78998572 151.91001236 0.83529412 0.88627451 0.91372549
v 222.14753553 -58.30306771 150.00611581 0.82745098 0.88627451 0.90588235
v 209.36674006 -34.72687505 151.96753220 0.83529412 0.88627451 0.91372549
v 209.92862041 -32.81938307 151.91620729 0.83529412 0.88627451 0.91372549
v 214.98284021 -59.93677160 151.47966145 0.83137255 0.88627451 0.91372549
v 174.04890034 32.94721243 152.43085525 0.83529412 0.88627451 0.91372549
v 174.61078069 34.85470442 152.37953034 0.83529412 0.88627451 0.91372549
v 154.08979911 74.54680561 141.94811382 0.78823529 0.87843137 0.87843137
v 143.59308992 77.49591044 141.08561860 0.78431373 0.87843137 0.87450980
v 144.18246766 75.36739507 152.36016757 0.83529412 0.88627451 0.91372549
v 167.23857109 70.54894248 139.37223281 0.77647059 0.87843137 0.86666667
v 190.37016849 31.02075185 149.01868579 0.81960784 0.88627451 0.90196078
v 170.59788619 67.37251114 147.27827472 0.81176471 0.88235294 0.89803922
v 187.72951608 30.85911979 149.88591197 0.82352941 0.88627451 0.90588235
v 190.32767334 31.03679898 149.08341416 0.81960784 0.88627451 0.90196078
v 167.20853449 70.55122098 139.45449545 0.77647059 0.87843137 0.86666667
v 157.40661906 71.38642140 149.91888410 0.82352941 0.88627451 0.90588235
v 170.55539104 67.38855827 147.34300309 0.81176471 0.88235294 0.89803922
v 170.56784959 67.37478964 147.36053735 0.81176471 0.88235294 0.89803922
v 197.75287340 -36.63094163 152.46330482 0.83529412 0.88627451 0.91372549
v 203.30969645 -61.87023552 151.98162900 0.83529412 0.88627451 0.91372549
v 196.06193417 -25.40843846 152.49036773 0.83529412 0.88627451 0.91372549
v 166.30091750 17.02635513 152.47201495 0.83529412 0.88627451 0.91372549
v 190.00489055 -52.55179893 152.50446453 0.83529412 0.88627451 0.91372549
v 86.89370379 9.45938560 149.99635394 0.82352941 0.88627451 0.90588235
v 86.99911980 9.47399655 150.04868885 0.82745098 0.88627451 0.90588235
v 221.32750692 -62.94341040 147.82035837 0.81568627 0.88627451 0.89803922
v 108.96736603 6.03749267 152.15134824 0.83529412 0.88627451 0.91372549
v 51.67860216 -59.87051681 149.78753461 0.82352941 0.88627451 0.90588235
v -1.62343562 -1.18140710 0.94954629 0.13333333 0.77254902 0.36862745
v 215.67736418 -64.01127107 149.83454978 0.82352941 0.88627451 0.90588235
v 208.57194597 -65.61557760 151.30190049 0.83137255 0.88627451 0.90980392
v 208.51266886 -65.64497495 151.30809542 0.83137255 0.88627451 0.90980392
v 196.89880220 -67.54904153 151.80386804 0.83529412 0.88627451 0.91372549
v 207.75191736 -70.25592029 149.11614305 0.81960784 0.88627451 0.90196078
v 207.77264207 -70.28939698 149.07893198 0.81960784 0.88627451 0.90196078
v 202.12249933 -71.35725764 151.09312339 0.83137255 0.88627451 0.90980392
v 224.47211898 -65.67423305 142.98953243 0.79215686 0.88235294 0.88235294
v 216.54667216 -71.91888227 142.27112570 0.78823529 0.87843137 0.87843137
v 210.91725413 -73.02021963 144.24810604 0.80000000 0.88235294 0.88627451
v 208.13533117 -59.57681737 121.10648804 0.69019608 0.86274510 0.80392157
v 185.85576610 -66.19503360 152.49519523 0.83529412 0.88627451 0.91372549
v 184.16482687 -54.97253043 152.52225814 0.83529412 0.88627451 0.91372549
v 126.83127540 -65.96139289 152.20159142 0.83529412 0.88627451 0.91372549
v 191.05873851 -69.96977303 151.82166165 0.83529412 0.88627451 0.91372549
v 24.71504286 -61.80013705 142.02143682 0.78823529 0.87843137 0.87843137
v 119.70550701 -70.90798305 136.89914909 0.76470588 0.87450980 0.85882353
v 203.77616320 -74.59875425 144.29669971 0.80000000 0.88235294 0.88627451
v 103.79038599 -70.85703237 143.75554904 0.79607843 0.88235294 0.88235294
v 130.73532097 -68.92773110 151.64633979 0.83137255 0.88627451 0.91372549
v 194.96278408 -72.93611124 151.26641002 0.83137255 0.88627451 0.90980392
v 194.98350880 -72.96958793 151.22919895 0.83137255 0.88627451 0.90980392
v 203.75753889 -74.59907323 144.42139266 0.80000000 0.88235294 0.88627451
v 183.91974799 -71.58210331 151.95773721 0.83529412 0.88627451 0.91372549
v 103.77176168 -70.85735135 143.88024200 0.79607843 0.88235294 0.88627451
v 187.84241787 -74.54812254 151.27779262 0.83137255 0.88627451 0.90980392
v 225.52473149 -29.01366233 136.11111650 0.76078431 0.87450980 0.85490196
v 215.96325074 -3.32290114 137.21251525 0.76470588 0.87450980 0.85882353
v 192.84411189 36.19152086 127.58359653 0.72156863 0.87058824 0.82352941
v 196.19096844 33.02885814 135.47210418 0.75686275 0.87450980 0.85490196
v 196.20342699 33.01508952 135.48963844 0.75686275 0.87450980 0.85490196
v 220.74389673 -37.98913420 130.56188382 0.73333333 0.87058824 0.83529412
v 209.18794369 -22.91624665 114.22807211 0.65882353 0.85882353 0.77647059
v 144.68815350 15.44267417 152.44296601 0.83529412 0.88627451 0.91372549
v 166.70118733 -42.91297672 152.50247849 0.83529412 0.88627451 0.91372549
v 109.36763586 -53.90183919 152.18181177 0.83529412 0.88627451 0.91372549
v 162.55206288 -56.55621139 152.49320919 0.83529412 0.88627451 0.91372549
v -38.76411882 19.85836696 0.83245993 0.13333333 0.77254902 0.36862745
v -48.44150508 19.93181208 1.02639264 0.13333333 0.77254902 0.36862745
v -85.66128826 40.94512723 0.93858450 0.13333333 0.77254902 0.36862745
v -85.82106770 40.88630210 1.00309238 0.13333333 0.77254902 0.36862745
v -86.37100204 41.02950436 2.20316177 0.13725490 0.77254902 0.37254902
v -28.51715894 -7.62760692 75.62625935 0.47843137 0.82745098 0.63921569
v -28.60439439 -7.69164203 75.53793014 0.47843137 0.82745098 0.63529412
v -33.59970746 -13.05776615 69.87449174 0.45098039 0.82352941 0.61568627
v -86.41044594 40.95233237 2.21465355 0.13725490 0.77254902 0.37254902
v -86.83190926 41.11476398 3.47931427 0.14509804 0.77254902 0.37647059
v -86.40521928 41.00307782 2.20190243 0.13725490 0.77254902 0.37254902
v -86.87447416 41.17864630 3.36674216 0.14509804 0.77254902 0.37647059
v -86.82668260 41.16550943 3.46656315 0.14509804 0.77254902 0.37647059
v -86.91391806 41.10147431 3.37823394 0.14509804 0.77254902 0.37647059
v 151.71125897 23.83386179 152.44984188 0.83529412 0.88627451 0.91372549
v 173.72429280 -34.52178910 152.50935436 0.83529412 0.88627451 0.91372549
v 152.11152880 -36.10547006 152.48030542 0.83529412 0.88627451 0.91372549
v -11.81031023 -2.49453526 1.44528447 0.13333333 0.77254902 0.36862745
v -49.03009341 18.51877990 1.35747633 0.13333333 0.77254902 0.36862745
v -48.95099344 18.54523881 1.32819811 0.13333333 0.77254902 0.36862745
v -49.11077288 18.48641368 1.39270599 0.13333333 0.77254902 0.36862745
v 57.09738942 -62.56966454 149.18446128 0.82352941 0.88627451 0.90196078
v 79.06563565 -66.00616842 151.28712066 0.83137255 0.88627451 0.90980392
v 136.15410824 -71.62687884 151.04326645 0.83137255 0.88627451 0.90980392
v 57.09320916 -62.60070205 149.15807596 0.81960784 0.88627451 0.90196078
v 52.09789610 -67.96682617 143.49463756 0.79607843 0.88235294 0.88235294
v 136.14992798 -71.65791634 151.01688114 0.83137255 0.88627451 0.90980392
v 84.48024265 -68.73635366 150.65766202 0.82745098 0.88627451 0.90980392
v -20.13393257 70.97520167 12.47291566 0.18431373 0.78039216 0.40784314
v -73.05438374 50.33491193 3.84139138 0.14509804 0.77254902 0.37647059
v -73.17947341 50.37272857 3.92691236 0.14509804 0.77254902 0.37647059
v -73.10037344 50.39918748 3.89763414 0.14509804 0.77254902 0.37647059
v -73.26015287 50.34036235 3.96214202 0.14509804 0.77254902 0.37647059
v -73.72940775 50.51593083 5.12698174 0.15294118 0.77254902 0.38431373
v -40.38888576 65.40900149 9.70076606 0.17254902 0.77647059 0.40000000
v -60.57256888 59.76251327 6.82971924 0.16078431 0.77647059 0.38823529
v 129.42122788 82.38409709 88.43510865 0.53725490 0.83921569 0.68235294
v 158.37362523 44.86401276 84.53498001 0.52156863 0.83529412 0.67058824
v 129.41906493 82.39691765 88.49089851 0.54117647 0.83921569 0.68235294
v 118.92235574 85.34602248 87.62840330 0.53725490 0.83921569 0.68235294
v 94.94857826 91.06940955 45.44228199 0.33725490 0.80392157 0.52941176
v -54.72455166 53.76715428 2.39772193 0.13725490 0.77254902 0.37254902
v -21.98778363 68.76095580 8.15819939 0.16470588 0.77647059 0.39215686
v -42.19674711 63.13048007 5.32980704 0.15294118 0.77254902 0.38431373
v -42.24273681 63.19475562 5.38604979 0.15294118 0.77254902 0.38431373
v -21.99735436 68.82036555 8.28972537 0.16470588 0.77647059 0.39215686
v -21.97207400 68.80435307 8.24707090 0.16470588 0.77647059 0.39215686
v -42.22702718 63.23815289 5.47492130 0.15294118 0.77254902 0.38431373
v -23.85120541 66.60611968 3.97500910 0.14509804 0.77254902 0.37647059
v 24.58461608 35.20441501 1.52774702 0.13333333 0.77254902 0.36862745
v -22.23345339 56.31763419 1.60459337 0.13725490 0.77254902 0.36862745
v 8.62418324 69.11320233 3.09300903 0.14117647 0.77254902 0.37647059
v 75.61782981 85.16553424 30.16120879 0.26666667 0.79215686 0.47450980
v 17.96837617 75.24552371 13.74288397 0.19215686 0.78039216 0.41176471
v 17.99365653 75.22951123 13.70022950 0.19215686 0.78039216 0.41176471
v 75.52335325 85.27821113 30.17834497 0.26666667 0.79215686 0.47450980
v 16.11452512 73.03127784 9.42816770 0.17254902 0.77647059 0.39607843
v 56.19044184 79.38715638 14.95306163 0.19607843 0.78039216 0.41960784
v 109.13413016 -60.59219597 78.48941382 0.49411765 0.83137255 0.64705882
v -43.66238552 -2.84037556 10.28842497 0.17647059 0.77647059 0.40000000
v -6.87141124 -25.20789777 10.64280891 0.17647059 0.77647059 0.40392157
v 109.16472740 -60.58882806 78.48651848 0.49411765 0.83137255 0.64705882
v -1.39242665 -46.53131909 19.53563255 0.21960784 0.78431373 0.43529412
v 109.09611650 -60.60712533 78.55911880 0.49411765 0.83137255 0.64705882
v 9.11033929 -56.86540345 78.01796813 0.49019608 0.83137255 0.64705882
v -43.70039919 -2.85530493 10.35812994 0.17647059 0.77647059 0.40000000
v -44.20909796 -2.75690844 11.53446145 0.18039216 0.78039216 0.40392157
v -1.46103755 -46.54961637 19.60823286 0.21960784 0.78431373 0.43529412
v 8.97051376 69.38886365 3.34708193 0.14509804 0.77254902 0.37647059
v 41.46161203 71.93934356 2.55395337 0.14117647 0.77254902 0.37254902
v 48.95195392 75.85741908 8.88911204 0.16862745 0.77647059 0.39607843
v 41.57612199 71.89359836 2.54135831 0.14117647 0.77254902 0.37254902
v 49.16094044 75.69899698 8.85938081 0.16862745 0.77647059 0.39607843
v 49.06646388 75.81167388 8.87651699 0.16862745 0.77647059 0.39607843
v 41.92245252 72.16925968 2.79543122 0.14117647 0.77254902 0.37254902
v -32.08225280 72.50907798 27.87150734 0.25882353 0.79215686 0.46666667
v 70.17435721 80.22949155 100.64912396 0.59607843 0.84705882 0.72941176
v 70.27977321 80.24410250 100.70145887 0.59607843 0.84705882 0.72941176
v 12.99100934 14.33609303 98.33764525 0.58431373 0.84705882 0.72156863
v -45.28429708 63.15563591 26.17920838 0.25098039 0.79215686 0.45882353
v -45.23650553 63.14249904 26.27902937 0.25098039 0.79215686 0.45882353
v -45.31851432 63.12920937 26.17794904 0.25098039 0.79215686 0.45882353
v -32.17344791 72.46649390 27.93818863 0.25882353 0.79215686 0.46666667
v -3.63714213 85.14878306 48.92373398 0.35686275 0.80784314 0.54117647
v 50.83488539 -14.93298735 1.68387615 0.13725490 0.77254902 0.36862745
v 41.15749913 -14.85954223 1.87780886 0.13725490 0.77254902 0.37254902
v 156.65355217 -51.63041370 70.02621924 0.45490196 0.82352941 0.61568627
v 145.09759913 -36.55752615 53.69240752 0.37647059 0.81176471 0.55686275
v 157.70616469 -14.96984298 63.14780331 0.41960784 0.81960784 0.59215686
v 40.64801077 -16.24611550 2.17961433 0.13725490 0.77254902 0.37254902
v 67.36555082 21.52627988 2.45600959 0.14117647 0.77254902 0.37254902
v 46.09639812 -37.57290474 11.07533330 0.18039216 0.78039216 0.40392157
v 46.12699536 -37.56953683 11.07243797 0.18039216 0.78039216 0.40392157
v 157.72385506 -14.80541391 63.16641087 0.42352941 0.81960784 0.59215686
v 94.30097104 31.38716232 24.01792298 0.23921569 0.78823529 0.45098039
v 67.38324119 21.69070895 2.47461715 0.14117647 0.77254902 0.37254902
v 74.96805964 25.49610757 8.79263964 0.16862745 0.77647059 0.39607843
v 67.84408167 21.92062507 2.71609500 0.14117647 0.77254902 0.37254902
v 93.63351050 -28.44669341 2.63074628 0.14117647 0.77254902 0.37254902
v 100.25458376 88.80524568 95.15885656 0.56862745 0.84313725 0.70980392
v 100.94937751 86.69134127 106.48574043 0.62352941 0.85098039 0.74901961
v 76.28080629 94.52863275 52.97273525 0.37254902 0.81176471 0.55686275
v 76.27864333 94.54145331 53.02852512 0.37254902 0.81176471 0.55686275
v 56.85341832 88.75025489 37.76458809 0.30196078 0.80000000 0.50196078
v 27.03246217 91.59602183 54.70801553 0.38039216 0.81176471 0.56078431
v 26.94126705 91.55343775 54.77469682 0.38431373 0.81176471 0.56078431
v 100.97453679 86.67445730 106.54887923 0.62352941 0.85098039 0.74901961
v 26.96642634 91.53655378 54.83783563 0.38431373 0.81176471 0.56078431
v 57.63603063 97.98379255 60.62211718 0.40784314 0.81568627 0.58431373
v 16.37156730 83.24561554 33.65043110 0.28627451 0.79607843 0.48627451
v 54.49915640 87.49992510 34.87774494 0.29019608 0.79607843 0.49019608
v 24.67820026 90.34569204 51.82117238 0.36862745 0.81176471 0.55294118
v 55.25660944 96.75034673 57.67213522 0.39607843 0.81568627 0.57254902
v -18.79963756 72.33764481 15.71409205 0.20000000 0.78039216 0.41960784
v -39.02931039 66.75543214 12.89928799 0.18823529 0.78039216 0.41176471
v -10.49300461 79.43772130 33.88483333 0.28627451 0.79607843 0.48627451
v 17.73114267 84.59204620 36.84895302 0.29803922 0.80000000 0.49803922
f 32 188 138
f 188 50 187
f 138 187 4
f 188 187 138
f 4 187 222
f 187 50 228
f 222 228 60
f 187 228 222
f 36 144 147
f 144 17 143
f 147 143 35
f 144 143 147
f 17 216 143
f 216 59 218
f 143 218 35
f 216 218 143
f 62 243 246
f 243 59 245
f 246 245 63
f 243 245 246
f 63 244 246
f 244 11 238
f 246 238 62
f 244 238 246
f 59 215 245
f 215 11 244
f 245 244 63
f 215 244 245
f 10 214 95
f 214 59 216
f 95 216 17
f 214 216 95
f 17 96 95
f 96 11 80
f 95 80 10
f 96 80 95
f 10 80 214
f 80 11 215
f 214 215 59
f 80 215 214
f 26 116 145
f 116 17 144
f 145 144 36
f 116 144 145
f 50 188 189
f 188 32 179
f 189 179 48
f 188 179 189
f 19 98 99
f 98 11 96
f 99 96 17
f 98 96 99
f 62 238 237
f 238 11 79
f 237 79 7
f 238 79 237
f 11 78 79
f 78 6 70
f 79 70 7
f 78 70 79
f 53 198 229
f 198 39 227
f 229 227 60
f 198 227 229
f 58 221 242
f 221 59 243
f 242 243 62
f 221 243 242
f 45 252 172
f 252 65 251
f 172 251 42
f 252 251 172
f 45 213 252
f 213 58 253
f 252 253 65
f 213 253 252
f 45 171 220
f 171 34 217
f 220 217 59
f 171 217 220
f 59 221 220
f 221 58 213
f 220 213 45
f 221 213 220
f 36 147 151
f 147 35 150
f 151 150 37
f 147 150 151
f 37 150 219
f 150 35 218
f 219 218 59
f 150 218 219
f 59 217 219
f 217 34 149
f 219 149 37
f 217 149 219
f 14 86 87
f 86 6 78
f 87 78 11
f 86 78 87
f 11 77 87
f 77 2 84
f 87 84 14
f 77 84 87
f 11 98 134
f 98 19 136
f 134 136 30
f 98 136 134
f 6 174 176
f 174 46 178
f 176 178 47
f 174 178 176
f 47 177 176
f 177 7 70
f 176 70 6
f 177 70 176
f 47 178 240
f 178 46 239
f 240 239 62
f 178 239 240
f 62 237 240
f 237 7 177
f 240 177 47
f 237 177 240
f 20 139 100
f 139 32 138
f 100 138 4
f 139 138 100
f 20 155 139
f 155 39 157
f 139 157 32
f 155 157 139
f 4 222 100
f 222 60 223
f 100 223 20
f 222 223 100
f 60 227 223
f 227 39 155
f 223 155 20
f 227 155 223
f 54 200 230
f 200 53 229
f 230 229 60
f 200 229 230
f 39 198 158
f 198 53 197
f 158 197 33
f 198 197 158
f 36 151 146
f 151 37 148
f 146 148 33
f 151 148 146
f 33 148 142
f 148 37 149
f 142 149 34
f 148 149 142
f 34 171 142
f 171 45 170
f 142 170 33
f 171 170 142
f 64 249 250
f 249 58 242
f 250 242 62
f 249 242 250
f 65 253 254
f 253 58 249
f 254 249 64
f 253 249 254
f 42 251 247
f 251 65 254
f 247 254 64
f 251 254 247
f 44 181 167
f 181 48 179
f 167 179 32
f 181 179 167
f 32 169 167
f 169 45 173
f 167 173 44
f 169 173 167
f 44 173 181
f 173 45 182
f 181 182 48
f 173 182 181
f 49 185 183
f 185 45 172
f 183 172 42
f 185 172 183
f 48 182 186
f 182 45 185
f 186 185 49
f 182 185 186
f 42 166 183
f 166 43 184
f 183 184 49
f 166 184 183
f 49 184 186
f 184 43 180
f 186 180 48
f 184 180 186
f 1 66 76
f 66 2 77
f 76 77 11
f 66 77 76
f 11 93 76
f 93 16 92
f 76 92 1
f 93 92 76
f 38 153 152
f 153 16 93
f 152 93 11
f 153 93 152
f 11 134 152
f 134 30 154
f 152 154 38
f 134 154 152
f 38 154 153
f 154 30 135
f 153 135 16
f 154 135 153
f 26 125 163
f 125 28 164
f 163 164 41
f 125 164 163
f 17 116 162
f 116 26 163
f 162 163 41
f 116 163 162
f 23 199 224
f 199 54 230
f 224 230 60
f 199 230 224
f 53 200 196
f 200 54 199
f 196 199 23
f 200 199 196
f 60 225 224
f 225 24 111
f 224 111 23
f 225 111 224
f 2 66 74
f 66 1 73
f 74 73 9
f 66 73 74
f 61 236 233
f 236 60 228
f 233 228 50
f 236 228 233
f 50 209 233
f 209 57 235
f 233 235 61
f 209 235 233
f 32 157 140
f 157 39 156
f 140 156 31
f 157 156 140
f 39 158 156
f 158 33 141
f 156 141 31
f 158 141 156
f 31 168 140
f 168 45 169
f 140 169 32
f 168 169 140
f 31 141 168
f 141 33 170
f 168 170 45
f 141 170 168
f 62 239 241
f 239 46 193
f 241 193 52
f 239 193 241
f 52 248 241
f 248 64 250
f 241 250 62
f 248 250 241
f 48 180 194
f 180 43 192
f 194 192 52
f 180 192 194
f 52 192 191
f 192 43 166
f 191 166 42
f 192 166 191
f 42 247 191
f 247 64 248
f 191 248 52
f 247 248 191
f 6 86 81
f 86 14 88
f 81 88 12
f 86 88 81
f 14 89 88
f 89 13 83
f 88 83 12
f 89 83 88
f 5 82 85
f 82 13 89
f 85 89 14
f 82 89 85
f 5 85 68
f 85 14 84
f 68 84 2
f 85 84 68
f 5 68 69
f 68 2 67
f 69 67 3
f 68 67 69
f 15 91 90
f 91 9 73
f 90 73 1
f 91 73 90
f 15 90 94
f 90 1 92
f 94 92 16
f 90 92 94
f 40 161 160
f 161 28 120
f 160 120 19
f 161 120 160
f 40 165 161
f 165 41 164
f 161 164 28
f 165 164 161
f 40 160 159
f 160 19 99
f 159 99 17
f 160 99 159
f 17 162 159
f 162 41 165
f 159 165 40
f 162 165 159
f 28 123 122
f 123 23 110
f 122 110 22
f 123 110 122
f 55 201 202
f 201 23 117
f 202 117 26
f 201 117 202
f 53 196 205
f 196 23 201
f 205 201 55
f 196 201 205
f 55 202 204
f 202 26 145
f 204 145 36
f 202 145 204
f 36 146 204
f 146 33 203
f 204 203 55
f 146 203 204
f 55 203 205
f 203 33 197
f 205 197 53
f 203 197 205
f 27 126 119
f 126 28 125
f 119 125 26
f 126 125 119
f 26 117 119
f 117 23 118
f 119 118 27
f 117 118 119
f 27 118 126
f 118 23 123
f 126 123 28
f 118 123 126
f 3 67 72
f 67 2 71
f 72 71 8
f 67 71 72
f 2 74 71
f 74 9 75
f 71 75 8
f 74 75 71
f 46 232 190
f 232 61 234
f 190 234 51
f 232 234 190
f 51 234 210
f 234 61 235
f 210 235 57
f 234 235 210
f 51 195 190
f 195 52 193
f 190 193 46
f 195 193 190
f 57 211 210
f 211 52 195
f 210 195 51
f 211 195 210
f 48 194 206
f 194 52 208
f 206 208 56
f 194 208 206
f 56 208 212
f 208 52 211
f 212 211 57
f 208 211 212
f 50 189 207
f 189 48 206
f 207 206 56
f 189 206 207
f 56 212 207
f 212 57 209
f 207 209 50
f 212 209 207
f 29 231 175
f 231 61 232
f 175 232 46
f 231 232 175
f 29 133 226
f 133 24 225
f 226 225 60
f 133 225 226
f 60 236 226
f 236 61 231
f 226 231 29
f 236 231 226
f 3 108 127
f 108 23 132
f 127 132 29
f 108 132 127
f 29 132 133
f 132 23 111
f 133 111 24
f 132 111 133
f 29 175 129
f 175 46 174
f 129 174 6
f 175 174 129
f 29 128 127
f 128 5 69
f 127 69 3
f 128 69 127
f 13 82 131
f 82 5 128
f 131 128 29
f 82 128 131
f 6 81 129
f 81 12 130
f 129 130 29
f 81 130 129
f 29 130 131
f 130 12 83
f 131 83 13
f 130 83 131
f 25 112 113
f 112 15 94
f 113 94 16
f 112 94 113
f 25 137 114
f 137 30 136
f 114 136 19
f 137 136 114
f 16 135 113
f 135 30 137
f 113 137 25
f 135 137 113
f 19 120 114
f 120 28 124
f 114 124 25
f 120 124 114
f 18 109 97
f 109 23 108
f 97 108 3
f 109 108 97
f 18 106 109
f 106 22 110
f 109 110 23
f 106 110 109
f 15 112 104
f 112 25 115
f 104 115 21
f 112 115 104
f 28 122 121
f 122 22 107
f 121 107 21
f 122 107 121
f 21 115 121
f 115 25 124
f 121 124 28
f 115 124 121
f 9 91 103
f 91 15 104
f 103 104 21
f 91 104 103
f 21 102 103
f 102 8 75
f 103 75 9
f 102 75 103
f 3 72 101
f 72 8 102
f 101 102 21
f 72 102 101
f 21 105 101
f 105 18 97
f 101 97 3
f 105 97 101
f 22 106 107
f 106 18 105
f 107 105 21
f 106 105 107

